<?xml version="1.0" encoding="UTF-8"?>
<svg id="Layer_1" data-name="Layer 1" xmlns="http://www.w3.org/2000/svg" viewBox="0 0 42.43 15.67">
  <defs>
    <style>
      .cls-1 {
        fill: #ffc024;
        fill-rule: evenodd;
        stroke-width: 0px;
      }
    </style>
  </defs>
  <path class="cls-1" d="M14.48,9.39c0-1.04-.83-1.88-1.86-1.88s-1.86.84-1.86,1.88v2.25c-.71.33-1.47.49-2.28.49s-1.55-.18-2.19-.55c-.64-.37-1.14-.88-1.49-1.53-.36-.65-.53-1.4-.53-2.23,0-1.3.39-2.35,1.17-3.13.78-.78,1.81-1.17,3.09-1.17.94,0,1.79.25,2.55.75.71.46,1.62.43,2.25-.14.9-.82.76-2.29-.28-2.92-.31-.19-.64-.36-.98-.5-1.11-.47-2.36-.71-3.75-.71-1.59,0-3.02.33-4.28,1-1.26.67-2.25,1.6-2.96,2.79-.71,1.19-1.06,2.54-1.06,4.05s.35,2.85,1.06,4.05c.71,1.19,1.69,2.12,2.94,2.79,1.25.67,2.65,1,4.22,1,1.11,0,2.21-.16,3.32-.5,1.11-.33,2.09-.8,2.94-1.42v-4.36ZM28.71,11.77c.59-.34,1.06-.83,1.4-1.45.34-.62.51-1.34.51-2.15s-.17-1.53-.51-2.15c-.34-.62-.81-1.11-1.4-1.45-.59-.34-1.25-.52-1.97-.52s-1.39.17-1.97.52c-.59.34-1.06.83-1.4,1.45-.34.62-.51,1.34-.51,2.15s.17,1.53.51,2.15c.34.63.81,1.11,1.4,1.45.59.34,1.25.52,1.97.52s1.38-.17,1.97-.52ZM22.63,14.7c-1.21-.65-2.17-1.54-2.86-2.68-.69-1.14-1.04-2.42-1.04-3.85s.35-2.71,1.04-3.85c.69-1.14,1.65-2.03,2.86-2.68,1.21-.65,2.58-.97,4.1-.97s2.89.32,4.1.97c1.21.65,2.17,1.54,2.86,2.68.69,1.14,1.04,2.42,1.04,3.85s-.35,2.71-1.04,3.85-1.64,2.03-2.86,2.68c-1.21.65-2.58.97-4.1.97s-2.89-.32-4.1-.97ZM42.43.87h-4.44l.73,9.22h2.97l.75-9.22ZM37.96,13.38c0,.51.17,1.01.48,1.39.44.53,1.02.79,1.76.79.67,0,1.22-.23,1.64-.68.38-.4.59-.97.58-1.54-.01-.6-.22-1.1-.62-1.49-.41-.4-.95-.6-1.6-.6s-1.19.2-1.61.6c-.42.4-.63.91-.63,1.53Z"/>
</svg>