<?xml version="1.0" standalone="no"?>
<!DOCTYPE svg PUBLIC "-//W3C//DTD SVG 1.1//EN" "http://www.w3.org/Graphics/SVG/1.1/DTD/svg11.dtd" >
<svg xmlns="http://www.w3.org/2000/svg" xmlns:xlink="http://www.w3.org/1999/xlink" version="1.1">
<metadata></metadata>
<defs>
<font id="jetbrains_monosemibold" horiz-adv-x="1228" >
<font-face units-per-em="2048" ascent="1638" descent="-410" />
<missing-glyph horiz-adv-x="500" />
<glyph horiz-adv-x="0" />
<glyph horiz-adv-x="682" />
<glyph unicode="&#xd;" />
<glyph unicode=" " />
<glyph unicode="!" d="M453 119q0 57 36.5 93t94.5 36h61q61 0 97 -36t36 -91q0 -57 -38 -94t-95 -37h-61q-57 0 -94 35.5t-37 93.5zM489 1495h250l-26 -1042h-197z" />
<glyph unicode="&#x22;" d="M265 1495h241l-14 -614h-211zM723 1495h241l-14 -614h-211z" />
<glyph unicode="#" d="M72 410v153h192l68 369h-189v155h213l76 408h162l-76 -408h309l76 408h162l-76 -408h168v-155h-192l-68 -369h188v-153h-215l-73 -410h-162l74 410h-310l-73 -410h-162l74 410h-166zM426 563h309l68 369h-309z" />
<glyph unicode="$" d="M133 395h221q0 -88 52.5 -144t150.5 -71v484l-45 12q-166 45 -255 159.5t-89 272.5q0 170 104.5 278.5t284.5 124.5v271h125v-269q180 -16 286.5 -124.5t108.5 -278.5h-221q0 84 -45 137t-129 70v-461l74 -20q164 -49 253 -163t89 -274q0 -174 -114 -286.5t-302 -130.5 v-269h-125v269q-197 16 -309.5 125.5t-114.5 287.5zM389 1122q0 -82 43 -141t125 -86v422q-82 -14 -125 -64.5t-43 -130.5zM682 178q92 14 143.5 69.5t51.5 143.5q0 84 -51.5 145.5t-143.5 84.5v-443z" />
<glyph unicode="%" d="M14 0l1033 1495h167l-1032 -1495h-168zM23 1096v133q-2 127 75.5 201.5t212.5 74.5q133 0 212 -74.5t81 -201.5v-133q0 -127 -79 -202t-214 -75t-213 75t-75 202zM188 1096q0 -59 34 -93t91 -34q55 0 89 33.5t36 93.5v133q0 59 -33.5 94t-91.5 35q-57 0 -91 -35t-34 -94 v-133zM625 266v133q-2 127 76.5 202t213.5 75t214 -75t79 -202v-133q0 -127 -79 -201.5t-214 -74.5q-133 0 -211.5 74.5t-78.5 201.5zM791 266q0 -57 33.5 -91t90.5 -34t91 34t34 91v133q0 59 -33.5 94t-91.5 35q-57 0 -89.5 -34.5t-34.5 -94.5v-133z" />
<glyph unicode="&#x26;" d="M43 375v125q0 162 86 260t236 110l-52 68q-100 131 -100 246q0 147 101.5 239.5t263.5 92.5q115 0 202.5 -50.5t137 -139.5t49.5 -206h-209q0 94 -50.5 153.5t-129.5 59.5q-70 0 -113 -43t-43 -112q0 -70 53 -138l387 -508l170 216h236l-293 -365l291 -383h-236l-176 233 l-63 -79q-63 -84 -153.5 -128t-188.5 -44q-186 0 -296 105.5t-110 287.5zM256 375q0 -94 54.5 -149.5t148.5 -55.5q59 0 108 28.5t90 80.5l80 102l-245 321h-46q-88 0 -139 -54t-51 -148v-125z" />
<glyph unicode="'" d="M494 1495h241l-14 -614h-211z" />
<glyph unicode="(" d="M360 555v367q0 311 165 520t468 278v-217q-190 -43 -300.5 -199.5t-110.5 -381.5v-367q0 -225 110.5 -382t300.5 -200v-219q-303 70 -468 279t-165 522z" />
<glyph unicode=")" d="M236 -27q190 43 300.5 200t110.5 382v367q0 225 -110.5 381.5t-300.5 199.5v217q303 -70 467.5 -278.5t164.5 -519.5v-367q0 -313 -164.5 -522t-467.5 -279v219z" />
<glyph unicode="*" d="M70 813l65 178l225 -84q39 -12 89.5 -36.5t95.5 -53.5q-25 106 -25 201v252h191l-2 -252q2 -96 -25 -201q45 29 95 52.5t89 37.5l228 84l63 -178l-225 -84q-41 -14 -96.5 -27.5t-110.5 -21.5q41 -37 82 -83t70 -85l137 -197l-156 -108l-139 196q-27 39 -55.5 92.5 t-51.5 104.5q-23 -51 -51 -104.5t-55 -92.5l-139 -196l-156 108l139 197q59 86 150 168q-55 8 -110.5 21.5t-96.5 27.5z" />
<glyph unicode="+" d="M127 575v201h379v385h217v-385h379v-201h-379v-382h-217v382h-379z" />
<glyph unicode="," d="M410 -328l110 627h258l-149 -627h-219z" />
<glyph unicode="-" d="M287 575v201h655v-201h-655z" />
<glyph unicode="." d="M434 156q0 80 50.5 130t129.5 50q80 0 130.5 -50t50.5 -130t-50.5 -128t-130.5 -48t-130 48t-50 128z" />
<glyph unicode="/" d="M139 -225l721 1925h232l-721 -1925h-232z" />
<glyph unicode="0" d="M152 424v649q0 201 124.5 322t337.5 121t338 -121t125 -322v-649q0 -135 -57 -234.5t-161 -154.5t-245 -55q-213 0 -337.5 120.5t-124.5 323.5zM362 424q0 -115 68.5 -184.5t183.5 -69.5t183.5 69.5t68.5 184.5v649q0 113 -68.5 182.5t-183.5 69.5t-183.5 -69.5 t-68.5 -182.5v-649zM485 754q0 57 36 88.5t93 31.5t93 -31.5t36 -88.5q0 -59 -36 -92t-93 -33t-93 32.5t-36 92.5z" />
<glyph unicode="1" d="M176 995v250l342 250h279v-1294h321v-201h-940v201h397v1089z" />
<glyph unicode="2" d="M141 1063q4 137 62.5 238.5t164 158t244.5 56.5t242.5 -54.5t161 -153t57.5 -231.5q0 -111 -56 -227.5t-190 -251.5l-389 -397h652v-201h-926v201l518 542q86 92 125 172t39 156q0 113 -63.5 180.5t-174.5 67.5q-113 0 -179.5 -69.5t-66.5 -186.5h-221z" />
<glyph unicode="3" d="M133 410h221q0 -109 65.5 -172.5t178.5 -63.5t178.5 63.5t65.5 172.5v106q0 113 -65.5 176.5t-178.5 63.5h-174v184l354 358h-598v197h844v-195l-352 -356q182 -18 286.5 -132t104.5 -294v-108q0 -199 -126 -314.5t-341 -115.5t-339 115.5t-124 314.5z" />
<glyph unicode="4" d="M133 311v332l547 852h248l-580 -907v-78h453v350h221v-860h-221v311h-668z" />
<glyph unicode="5" d="M139 410h221q0 -109 67 -172.5t179 -63.5q113 0 178.5 63.5t65.5 176.5v94q0 111 -63.5 175.5t-174.5 64.5h-422v747h826v-201h-617l2 -350h222q213 0 330.5 -113.5t117.5 -322.5v-94q0 -201 -125 -317.5t-342 -116.5q-213 0 -339 115.5t-126 314.5z" />
<glyph unicode="6" d="M119 467q0 92 38 200.5t103 223.5l334 604h248l-377 -649l8 -6q29 39 84 61.5t125 22.5q127 0 223 -57.5t150.5 -161t54.5 -238.5q0 -147 -62.5 -257t-173.5 -170t-258 -60q-150 0 -261 61t-173.5 169.5t-62.5 256.5zM338 463q0 -131 75.5 -211t200.5 -80t201 80t76 211 t-76 211t-201 80t-200.5 -80t-75.5 -211z" />
<glyph unicode="7" d="M154 1055v440h979v-199l-535 -1296h-242l539 1298h-520v-243h-221z" />
<glyph unicode="8" d="M121 420q0 139 80 241.5t211 126.5v7q-113 23 -180.5 112.5t-67.5 210.5q0 117 56 207t158.5 140.5t235.5 50.5t235.5 -50.5t160 -140.5t57.5 -207q0 -121 -68.5 -211t-181.5 -112v-7q131 -25 211 -127t80 -241q0 -131 -62.5 -230.5t-174.5 -154.5t-257 -55t-256.5 55 t-174 154.5t-62.5 230.5zM340 428q0 -115 76.5 -185.5t197.5 -70.5t198 70.5t77 185.5q0 117 -77 188.5t-198 71.5t-197.5 -71.5t-76.5 -188.5zM381 1100q0 -100 64.5 -163t168.5 -63t169 62.5t65 163.5q0 102 -64.5 164.5t-169.5 62.5q-104 0 -168.5 -62.5t-64.5 -164.5z " />
<glyph unicode="9" d="M119 1028q0 147 62.5 257t173 170.5t257.5 60.5q150 0 261.5 -60.5t174 -170t62.5 -255.5q0 -94 -38 -202.5t-101 -223.5l-336 -604h-256l364 633l-4 -6q-25 -25 -67.5 -43.5t-112.5 -18.5q-127 0 -226.5 59.5t-156.5 164t-57 239.5zM338 1032q0 -131 75.5 -211 t200.5 -80t201 80t76 211t-76 212t-201 81t-200.5 -81t-75.5 -212z" />
<glyph unicode=":" d="M434 141q0 74 47 118t133 44t133.5 -44t47.5 -118t-47.5 -117.5t-133.5 -43.5t-133 44t-47 117zM434 985q0 74 47 118t133 44t133.5 -44t47.5 -118t-47.5 -118t-133.5 -44t-133 44t-47 118z" />
<glyph unicode=";" d="M399 -328l111 627h258l-150 -627h-219zM432 985q0 70 46 116t116 46h41q70 0 117 -46t47 -116q0 -72 -46 -118t-118 -46h-41q-72 0 -117 46t-45 118z" />
<glyph unicode="&#x3c;" d="M166 559v232l899 436v-207l-614 -293q-41 -18 -78 -31.5t-56 -17.5q20 -4 58.5 -16.5t75.5 -30.5l614 -295v-213z" />
<glyph unicode="=" d="M172 328v200h887v-200h-887zM172 825v201h887v-201h-887z" />
<glyph unicode="&#x3e;" d="M166 123v209l612 293q41 18 78 30.5t55 16.5q-20 6 -58 18t-75 31l-612 293v213l899 -436v-232z" />
<glyph unicode="?" d="M252 1288v207h274q145 0 254 -54.5t169.5 -152.5t60.5 -233q0 -121 -51.5 -215.5t-140.5 -148.5t-208 -58v-180h-207l-2 370h134q115 0 184 62.5t69 169.5q0 106 -69.5 169.5t-186.5 63.5h-280zM342 119q0 57 37 93t96 36h62q61 0 96 -36t35 -91q0 -57 -37 -94t-96 -37 h-60q-59 0 -96 35.5t-37 93.5z" />
<glyph unicode="@" d="M80 225v697q0 184 68.5 317t194.5 205t302 72q160 0 275.5 -61.5t177 -174.5t61.5 -262v-555q0 -162 -92 -256t-248 -94t-246 92t-90 244v227q0 154 72 238.5t199 84.5q84 0 139 -33.5t74 -93.5h4v146q0 160 -85 247t-245 87q-176 0 -274.5 -113t-98.5 -317v-697 q0 -197 105.5 -307.5t292.5 -110.5h225v-176h-225q-180 0 -311.5 73t-203 206t-71.5 315zM668 449q0 -86 39.5 -134.5t111.5 -48.5t112 48t40 135v229q0 86 -40 132t-112 46t-111.5 -47t-39.5 -133v-227z" />
<glyph unicode="A" d="M88 0l381 1495h291l383 -1495h-225l-91 379h-424l-90 -379h-225zM444 563h340l-102 430q-27 115 -44 199t-24 117q-6 -33 -22.5 -117t-44.5 -197z" />
<glyph unicode="B" d="M174 0v1495h440q211 0 333 -103.5t122 -283.5q0 -119 -71.5 -208t-186.5 -109v-7q86 -10 152.5 -61t103.5 -129t37 -174q0 -193 -125 -306.5t-336 -113.5h-469zM389 190h236q121 0 190.5 64.5t69.5 175.5q0 115 -70 184.5t-190 69.5h-236v-494zM389 868h223 q109 0 173.5 58.5t64.5 160.5q0 100 -63.5 159t-172.5 59h-225v-437z" />
<glyph unicode="C" d="M172 416v663q0 203 124 320t335 117q209 0 332.5 -118t123.5 -319h-221q0 117 -62.5 178.5t-172.5 61.5q-113 0 -175.5 -61.5t-62.5 -178.5v-663q0 -117 62.5 -178.5t175.5 -61.5q111 0 173 61.5t62 178.5h221q0 -201 -123.5 -318.5t-332.5 -117.5q-211 0 -335 117.5 t-124 318.5z" />
<glyph unicode="D" d="M170 0v1495h418q147 0 255.5 -56.5t169 -159.5t60.5 -241v-577q0 -141 -60.5 -243.5t-169 -160t-255.5 -57.5h-418zM391 199h197q121 0 192.5 69.5t71.5 192.5v577q0 119 -71.5 189.5t-192.5 70.5h-197v-1099z" />
<glyph unicode="E" d="M193 0v1495h878v-197h-661v-426h589v-190h-589v-485h661v-197h-878z" />
<glyph unicode="F" d="M180 0v1495h905v-203h-688v-446h635v-205h-631v-641h-221z" />
<glyph unicode="G" d="M164 416v663q0 203 124 320t335 117q209 0 332.5 -118t123.5 -319h-221q0 117 -62.5 178.5t-172.5 61.5q-113 0 -175.5 -61.5t-62.5 -176.5v-665q0 -117 62.5 -179.5t175.5 -62.5q111 0 173 62.5t62 179.5v184h-278v197h499v-381q0 -201 -123.5 -318.5t-332.5 -117.5 q-211 0 -335 117.5t-124 318.5z" />
<glyph unicode="H" d="M174 0v1495h221v-623h439v623h221v-1495h-221v674h-439v-674h-221z" />
<glyph unicode="I" d="M201 0v201h301v1093h-301v201h829v-201h-303v-1093h303v-201h-829z" />
<glyph unicode="J" d="M78 436h221q0 -123 66.5 -192.5t187.5 -69.5q119 0 187.5 68.5t68.5 193.5v1059h221v-1059q0 -211 -128 -333.5t-349 -122.5t-348 122.5t-127 333.5z" />
<glyph unicode="K" d="M172 0v1495h221v-627h199l307 627h240l-355 -717l373 -778h-250l-319 676h-195v-676h-221z" />
<glyph unicode="L" d="M258 0v1495h221v-1294h654v-201h-875z" />
<glyph unicode="M" d="M129 0v1495h303l178 -645l185 645h305v-1495h-209v668q0 115 5 249t13.5 265t18.5 237l-226 -762h-186l-217 744q18 -145 28.5 -333.5t10.5 -399.5v-668h-209z" />
<glyph unicode="N" d="M166 0v1495h280l435 -1243q-4 57 -10.5 139t-9.5 170t-3 162v772h205v-1495h-279l-434 1243q4 -55 9.5 -134t9.5 -165t4 -160v-784h-207z" />
<glyph unicode="O" d="M164 436v623q0 217 121 337t329 120q209 0 330 -120t121 -335v-625q0 -217 -121 -336.5t-330 -119.5t-329.5 119.5t-120.5 336.5zM385 416q0 -117 59 -178.5t170 -61.5t170.5 61.5t59.5 178.5v663q0 117 -58.5 178.5t-171.5 61.5t-171 -61.5t-58 -178.5v-663z" />
<glyph unicode="P" d="M172 0v1495h490q145 0 252.5 -55.5t166 -156.5t58.5 -239q0 -137 -59.5 -238t-166 -156.5t-251.5 -55.5h-269v-594h-221zM393 791h269q115 0 183 69.5t68 183.5q0 115 -68.5 184.5t-182.5 69.5h-269v-507z" />
<glyph unicode="Q" d="M152 424v649q0 201 125.5 322t336.5 121q141 0 245 -55.5t161 -155t57 -232.5v-649q0 -137 -59.5 -239.5t-165.5 -153.5l244 -400h-246l-211 349h-25q-141 0 -244.5 55t-160.5 154.5t-57 234.5zM373 424q0 -115 64 -182.5t177 -67.5t177.5 67.5t64.5 182.5v649 q0 115 -64.5 181.5t-177.5 66.5t-177 -66.5t-64 -181.5v-649z" />
<glyph unicode="R" d="M174 0v1495h467q139 0 244.5 -54.5t164 -152.5t58.5 -231q0 -150 -76 -260.5t-203 -155.5l299 -641h-241l-279 614h-215v-614h-219zM393 811h248q111 0 176.5 65.5t65.5 176.5q0 113 -66.5 179t-175.5 66h-248v-487z" />
<glyph unicode="S" d="M133 416h217q0 -113 74 -177.5t197 -64.5q121 0 190.5 65.5t69.5 174.5q0 82 -45 143t-129 84l-215 57q-152 41 -239 149.5t-87 260.5q0 123 54 214t154.5 142.5t233.5 51.5t234.5 -51.5t158 -142.5t56.5 -212h-217q0 96 -64.5 154.5t-167.5 58.5q-102 0 -164.5 -58.5 t-62.5 -152.5q0 -76 42 -127t118 -72l221 -59q156 -41 246 -160t90 -280q0 -133 -59.5 -230.5t-166 -150.5t-251.5 -53q-221 0 -354.5 116.5t-133.5 319.5z" />
<glyph unicode="T" d="M104 1294v201h1022v-201h-401v-1294h-221v1294h-400z" />
<glyph unicode="U" d="M166 418v1077h221v-1075q0 -115 57.5 -180.5t169.5 -65.5q113 0 170.5 65.5t57.5 180.5v1075h221v-1077q0 -205 -117 -321.5t-332 -116.5t-331.5 117.5t-116.5 320.5z" />
<glyph unicode="V" d="M88 1495h225l242 -995q23 -90 39 -176t24 -134q8 47 26 134.5t40 177.5l231 993h228l-381 -1495h-295z" />
<glyph unicode="W" d="M35 1495h192l105 -1073q6 -61 10 -139t6 -127q6 49 12.5 126.5t14.5 139.5l139 1073h209l129 -1073q6 -61 15.5 -139t13.5 -127q4 49 9 126.5t11 139.5l107 1073h186l-172 -1495h-258l-125 1087q-6 63 -12 139.5t-11 123.5q-4 -47 -9 -123t-13 -140l-133 -1087h-260z" />
<glyph unicode="X" d="M70 0l422 762l-398 733h250l209 -408q18 -39 36.5 -77.5t28.5 -59.5q8 20 26 59.5t38 77.5l213 408h240l-398 -725l422 -770h-250l-231 442q-20 39 -38.5 79t-29.5 63q-8 -23 -26.5 -63t-36.5 -77l-236 -444h-241z" />
<glyph unicode="Y" d="M59 1495h234l260 -565q27 -55 43 -104.5t22 -73.5q6 25 22.5 73.5t41.5 104.5l258 565h229l-444 -944v-551h-221v551z" />
<glyph unicode="Z" d="M168 0v213l637 1081h-625v201h860v-211l-637 -1083h658v-201h-893z" />
<glyph unicode="[" d="M399 -225v1925h539v-201h-317v-1524h317v-200h-539z" />
<glyph unicode="\" d="M137 1700h232l721 -1925h-232z" />
<glyph unicode="]" d="M293 -25h317v1524h-317v201h538v-1925h-538v200z" />
<glyph unicode="^" d="M152 696l360 799h209l356 -799h-203l-208 500q-16 41 -28.5 80t-19.5 59q-6 -20 -19 -59t-30 -80l-215 -500h-202z" />
<glyph unicode="_" d="M123 -51h983v-193h-983v193z" />
<glyph unicode="`" d="M311 1608h246l221 -287h-229z" />
<glyph unicode="a" d="M127 332q0 160 108.5 257t288.5 97h312v82q0 195 -220 195q-98 0 -157.5 -37t-63.5 -103h-217q10 141 127 232.5t313 91.5q209 0 324 -99.5t115 -277.5v-770h-217v211h-2q-14 -109 -102.5 -170t-233.5 -61q-172 0 -273.5 97t-101.5 255zM348 348q0 -86 57.5 -136 t159.5 -50q125 0 198 60.5t73 162.5v145h-295q-88 0 -140.5 -51t-52.5 -131z" />
<glyph unicode="b" d="M172 0v1495h221v-321l-6 -261q25 109 108 171.5t203 62.5q168 0 268.5 -114.5t100.5 -311.5v-318q0 -195 -100.5 -309t-268.5 -114q-123 0 -203.5 61t-103.5 172v-213h-219zM393 420q0 -119 61 -183.5t167 -64.5t165.5 56.5t59.5 181.5v309q0 123 -59.5 179t-165.5 56 t-167 -64.5t-61 -180.5v-289z" />
<glyph unicode="c" d="M166 416v295q0 203 127 319.5t338 116.5q205 0 327.5 -106.5t131.5 -290.5h-220q-6 96 -70.5 149t-168.5 53q-113 0 -178.5 -62.5t-65.5 -176.5v-297q0 -117 65.5 -179.5t178.5 -62.5q106 0 169.5 53.5t69.5 151.5h220q-8 -184 -131 -291.5t-328 -107.5 q-211 0 -338 116.5t-127 319.5z" />
<glyph unicode="d" d="M162 403v318q0 197 100 311.5t268 114.5q121 0 204 -61.5t108 -172.5l-6 261v321h221v-1495h-219v213q-23 -111 -104 -172t-204 -61q-168 0 -268 114.5t-100 308.5zM383 410q0 -125 59.5 -181.5t165.5 -56.5t167 64.5t61 183.5v289q0 117 -60.5 181t-167.5 64 q-106 0 -165.5 -56t-59.5 -179v-309z" />
<glyph unicode="e" d="M158 430v266q0 209 125 330t331 121q139 0 241.5 -54.5t159 -152.5t56.5 -229v-203h-700v-92q0 -119 65.5 -184.5t177.5 -65.5q92 0 153.5 33.5t74.5 93.5h219q-23 -143 -145 -228t-302 -85q-207 0 -331.5 120.5t-124.5 329.5zM371 664h487v49q0 125 -63.5 192.5 t-180.5 67.5t-180 -68.5t-63 -193.5v-47z" />
<glyph unicode="f" d="M106 772v201h320v217q0 141 90 223t246 82h330v-197h-326q-119 0 -119 -110v-215h445v-201h-445v-772h-221v772h-320z" />
<glyph unicode="g" d="M164 496v227q0 195 100.5 309.5t274.5 114.5q117 0 194.5 -55.5t104.5 -155.5v190h217v-1118q0 -174 -112 -275.5t-304 -101.5h-320v191h318q92 0 145.5 51t53.5 139v84l4 189q-27 -100 -106 -155.5t-195 -55.5q-174 0 -274.5 112.5t-100.5 309.5zM385 492 q0 -109 58 -170.5t167 -61.5q104 0 165 64.5t61 181.5v205q0 115 -60.5 179t-165.5 64q-109 0 -167 -61.5t-58 -167.5v-233z" />
<glyph unicode="h" d="M172 0v1495h221v-369l-2 -215q16 111 95 173.5t206 62.5q168 0 268.5 -107.5t100.5 -289.5v-750h-221v719q0 115 -59.5 177t-162.5 62q-104 0 -164.5 -65.5t-60.5 -181.5v-711h-221z" />
<glyph unicode="i" d="M166 0v201h391v725h-350v200h571v-925h363v-201h-975zM492 1460q0 66 43 104t115 38t114.5 -38t42.5 -104q0 -63 -42.5 -101t-114.5 -38t-115 38t-43 101z" />
<glyph unicode="j" d="M166 926v200h747v-1056q0 -203 -122.5 -321t-331.5 -118h-283v201h275q113 0 177 63.5t64 176.5v854h-526zM627 1460q0 66 43 104t115 38t114.5 -38t42.5 -104q0 -63 -42.5 -101t-114.5 -38t-115 38t-43 101z" />
<glyph unicode="k" d="M182 0v1495h221v-821h199l291 452h248l-346 -540l362 -586h-254l-299 483h-201v-483h-221z" />
<glyph unicode="l" d="M59 1294v201h600v-1149q0 -68 37 -106.5t101 -38.5h340v-201h-349q-160 0 -255 93t-95 249v952h-379z" />
<glyph unicode="m" d="M109 0v1126h188v-157h4q8 80 59.5 129t128.5 49q74 0 126.5 -46t72.5 -124q12 78 63.5 124t131.5 46q104 0 170.5 -81t66.5 -208v-858h-200v848q0 61 -29 97t-80 36t-78.5 -35t-27.5 -96v-850h-181v848q0 61 -27.5 97t-78.5 36t-80 -35t-29 -96v-850h-200z" />
<glyph unicode="n" d="M172 0v1126h219v-215q16 111 95 173.5t206 62.5q168 0 268.5 -107.5t100.5 -289.5v-750h-221v717q0 117 -59.5 179t-162.5 62q-104 0 -164.5 -65.5t-60.5 -181.5v-711h-221z" />
<glyph unicode="o" d="M158 432v262q0 211 122.5 331t333.5 120t334 -120t123 -331v-262q0 -209 -124 -329.5t-333 -120.5t-332.5 120.5t-123.5 329.5zM379 418q0 -117 62 -179.5t173 -62.5t173.5 62.5t62.5 179.5v291q0 117 -62.5 179t-173.5 62t-173 -62.5t-62 -178.5v-291z" />
<glyph unicode="p" d="M172 -369v1495h219v-213q23 111 103.5 172.5t203.5 61.5q168 0 268.5 -116t100.5 -308v-317q0 -195 -100.5 -310.5t-268.5 -115.5q-123 0 -204.5 64.5t-104.5 176.5h-2l6 -268v-322h-221zM393 420q0 -119 61 -183.5t167 -64.5t165.5 56.5t59.5 181.5v309q0 123 -59.5 179 t-165.5 56t-167 -64.5t-61 -180.5v-289z" />
<glyph unicode="q" d="M162 406v317q0 195 100 309.5t268 114.5q123 0 204 -61.5t104 -172.5v213h219v-1495h-221v322l6 256h-4q-25 -106 -106 -167.5t-202 -61.5q-168 0 -268 114.5t-100 311.5zM383 401q0 -119 59.5 -174t165.5 -55t167 64.5t61 183.5v289q0 117 -60.5 181t-167.5 64 q-106 0 -165.5 -55t-59.5 -174v-324z" />
<glyph unicode="r" d="M213 0v1126h219v-221q16 113 96 177.5t211 64.5q174 0 270.5 -108.5t96.5 -305.5v-100h-221v94q0 227 -223 227q-111 0 -169.5 -64.5t-58.5 -187.5v-702h-221z" />
<glyph unicode="s" d="M154 315h219q0 -72 51 -111.5t145 -39.5h90q96 0 149.5 40t53.5 113q0 129 -137 148l-297 41q-125 16 -192.5 99t-67.5 216q0 154 103.5 239t293.5 85h92q176 0 286 -84t116 -221h-221q-4 55 -52.5 91t-128.5 36h-92q-88 0 -136 -39t-48 -103q0 -106 117 -123l278 -36 q301 -41 301 -347q0 -162 -108.5 -249.5t-309.5 -87.5h-90q-195 0 -305 88t-110 245z" />
<glyph unicode="t" d="M84 926v200h317v318h222v-318h454v-200h-454v-604q0 -53 30.5 -87t83.5 -34h330v-201h-340q-150 0 -238 86t-88 233v607h-317z" />
<glyph unicode="u" d="M168 418v708h221v-706q0 -115 59.5 -181.5t163.5 -66.5q106 0 167 66.5t61 181.5v706h221v-708q0 -203 -122 -320.5t-327 -117.5t-324.5 117.5t-119.5 320.5z" />
<glyph unicode="v" d="M92 1126h234l231 -720q20 -63 36.5 -126t24.5 -104q8 41 21.5 103.5t34.5 126.5l229 720h234l-379 -1126h-285z" />
<glyph unicode="w" d="M47 1126h182l107 -741q8 -55 14 -119.5t8 -105.5q4 41 10.5 105.5t16.5 119.5l131 741h199l131 -741q8 -55 15 -119.5t11 -105.5q4 41 9.5 105.5t13.5 119.5l111 741h176l-187 -1126h-233l-119 735q-10 57 -17.5 127t-11.5 111q-2 -41 -11 -110.5t-17 -127.5l-123 -735 h-236z" />
<glyph unicode="x" d="M88 0l395 582l-370 544h254l198 -311q14 -25 28.5 -52.5t22.5 -45.5q6 18 19.5 46t30.5 52l196 311h256l-370 -546l393 -580h-254l-219 338q-14 25 -28.5 55.5t-23.5 48.5q-10 -18 -24 -49t-31 -55l-219 -338h-254z" />
<glyph unicode="y" d="M92 1126h236l239 -634q18 -45 34.5 -98.5t23.5 -94.5q8 41 23.5 94t31.5 99l223 634h234l-555 -1495h-232l164 435z" />
<glyph unicode="z" d="M172 0v209l608 721h-590v196h844v-208l-616 -721h639v-197h-885z" />
<glyph unicode="{" d="M147 637v201h252q111 0 150 45t31 141l-31 328q-16 162 89 255t286 93h116v-201h-98q-86 0 -133 -41t-39 -119l31 -327q10 -113 -56.5 -183.5t-205.5 -87.5q139 -16 205.5 -92t56.5 -186l-31 -328q-8 -78 39 -119t133 -41h98v-200h-116q-182 0 -287 94t-88 256l31 326 q8 94 -31 140t-150 46h-252z" />
<glyph unicode="|" d="M504 -225v1925h221v-1925h-221z" />
<glyph unicode="}" d="M188 -25h99q86 0 135 41t39 119l-45 328q-16 109 44 185.5t167 96.5q-106 16 -167 86t-44 181l45 327q10 78 -39 119t-135 41h-99v201h117q121 0 211 -42t135 -120t31 -186l-45 -328q-14 -96 27 -141t153 -45h264v-201h-264q-113 0 -153.5 -46t-26.5 -140l45 -326 q14 -109 -31 -187.5t-135 -120.5t-211 -42h-117v200z" />
<glyph unicode="~" d="M125 522v154q0 123 77 197.5t206 74.5q80 0 132 -27.5t88 -68.5t64.5 -82t58 -67.5t70.5 -26.5q88 0 88 100v146h195v-152q0 -123 -77 -197.5t-204 -74.5q-82 0 -134 26.5t-88 67.5t-64.5 82t-58 68.5t-70.5 27.5q-86 0 -86 -100v-148h-197z" />
<glyph unicode="&#xa0;" />
<glyph unicode="&#xa1;" d="M453 1008q0 57 36.5 93t94.5 36h61q57 0 95 -37t38 -94q0 -55 -35.5 -91t-97.5 -36h-61q-57 0 -94 35.5t-37 93.5zM489 -369l27 1043h197l26 -1043h-250z" />
<glyph unicode="&#xa2;" d="M166 416v295q0 184 107.5 298.5t287.5 133.5v270h125v-268q180 -14 288.5 -119.5t115.5 -275.5l-220 -2q-6 84 -54 136t-130 64v-770q82 12 130 63.5t54 137.5h220q-6 -172 -115 -277.5t-289 -119.5v-269h-125v271q-180 18 -287.5 132.5t-107.5 299.5zM387 416 q0 -96 46 -156.5t128 -77.5v762q-82 -16 -128 -76.5t-46 -154.5v-297z" />
<glyph unicode="&#xa3;" d="M147 612v189h146q-31 49 -62.5 95t-53 101.5t-21.5 130.5q0 115 56 202t159.5 136.5t242.5 49.5q207 0 329 -109t128 -293h-227q-2 92 -65.5 149.5t-168.5 57.5q-111 0 -171 -55.5t-60 -149.5q0 -68 25.5 -116t61.5 -94t66 -105h359v-189h-305q2 -29 2 -61 q0 -88 -40 -158.5t-98.5 -120t-111.5 -71.5h758v-201h-942v242q49 33 100 81t87 103t36 106q0 43 -6 80h-224z" />
<glyph unicode="&#xa4;" d="M86 1167l133 133l180 -180q98 57 217 58q127 0 226 -62l172 172l131 -129l-172 -172q61 -100 61 -223q0 -63 -16.5 -119.5t-46.5 -105.5l176 -177l-135 -133l-178 179q-94 -57 -218 -58q-125 0 -219 58l-176 -175l-131 132l170 172q-66 100 -65 227q0 127 67 227z M362 764q0 -111 72.5 -183.5t181.5 -72.5q106 0 178 72.5t72 183.5t-71.5 183.5t-178.5 72.5q-109 0 -181.5 -73t-72.5 -183z" />
<glyph unicode="&#xa5;" d="M59 1495h234l260 -565q27 -55 43 -104.5t22 -73.5q6 25 22.5 73.5t41.5 104.5l258 565h229l-364 -776h301v-172h-381v-141h381v-173h-381v-233h-221v233h-381v173h381v141h-381v172h301z" />
<glyph unicode="&#xa6;" d="M504 -225v778h221v-778h-221zM504 922v778h221v-778h-221z" />
<glyph unicode="&#xa7;" d="M137 2h230q4 -61 58 -98t144 -37h90q98 0 154.5 45t56.5 119q0 68 -48 113.5t-144 62.5l-191 35q-152 27 -240.5 126t-88.5 224q0 117 64.5 189.5t180.5 86.5v9q-102 23 -170.5 100.5t-68.5 200.5q0 156 109.5 247t301.5 91h91q174 0 284.5 -81t126.5 -221h-229 q-8 53 -57.5 85t-124.5 32h-91q-92 0 -143 -41t-51 -110q0 -61 36 -104.5t103 -57.5l236 -45q156 -33 243.5 -130.5t87.5 -221.5q0 -119 -71.5 -190t-181.5 -79v-6q49 -6 109.5 -41t104.5 -101.5t44 -170.5q0 -160 -116 -254t-317 -94h-90q-197 0 -311.5 84t-120.5 233z M377 616q0 -76 40 -130t107 -66l142 -25q90 -16 146 45.5t56 165.5q0 70 -43 123t-112 66l-142 26q-86 16 -140 -43t-54 -162z" />
<glyph unicode="&#xa8;" d="M240 1460q0 66 38 104t103 38q63 0 102 -38t39 -104q0 -63 -39 -101t-102 -38q-66 0 -103.5 38t-37.5 101zM709 1460q0 66 38 104t101 38q66 0 103.5 -38t37.5 -104q0 -63 -37.5 -101t-103.5 -38q-63 0 -101 38t-38 101z" />
<glyph unicode="&#xa9;" d="M92 717v307q0 147 65.5 258t183.5 172.5t273 61.5q158 0 275 -61.5t182.5 -172.5t65.5 -258v-307q0 -147 -65.5 -258t-182.5 -172.5t-275 -61.5q-156 0 -273.5 61.5t-183 172t-65.5 258.5zM205 717q0 -117 51 -205t143 -136t215 -48t215.5 48t143.5 136t51 205v307 q0 117 -51 204t-143.5 136t-215.5 49t-215 -49t-143 -136t-51 -204v-307zM362 743v254q0 109 72 175.5t191 66.5q117 0 188.5 -66.5t71.5 -175.5h-146q0 53 -31.5 85t-82.5 32q-53 0 -85 -31.5t-32 -85.5v-254q0 -53 31.5 -84.5t85.5 -31.5q51 0 82.5 31.5t31.5 84.5h146 q0 -109 -71.5 -175t-188.5 -66q-119 0 -191 66.5t-72 174.5z" />
<glyph unicode="&#xaa;" d="M352 1100q0 80 59.5 127t161.5 47h172v57q0 41 -32.5 65.5t-87.5 24.5q-49 0 -82 -20.5t-39 -50.5h-121q12 78 76.5 122t165.5 44q111 0 176 -49.5t65 -135.5v-399h-114v112h-7q-23 -57 -72.5 -89.5t-117.5 -32.5q-92 0 -147.5 48t-55.5 130zM473 1100q0 -41 32 -65.5 t83 -24.5q74 0 115.5 33.5t41.5 93.5v49h-172q-100 0 -100 -86z" />
<glyph unicode="&#xab;" d="M53 573l375 492h246l-383 -487l383 -496h-246zM547 573l375 492h245l-385 -487l385 -496h-245z" />
<glyph unicode="&#xac;" d="M205 627v200h819v-469h-213v269h-606z" />
<glyph unicode="&#xad;" d="M287 575v201h655v-201h-655z" />
<glyph unicode="&#xae;" d="M92 717v307q0 147 65.5 258t183.5 172.5t273 61.5q158 0 275 -61.5t182.5 -172.5t65.5 -258v-307q0 -147 -65.5 -258t-182.5 -172.5t-275 -61.5q-156 0 -273.5 61.5t-183 172t-65.5 258.5zM205 717q0 -117 51 -205t143.5 -136t214.5 -48q123 0 215.5 48t143.5 136t51 205 v307q0 117 -51 204t-143.5 136t-215.5 49t-215 -49t-143 -136t-51 -204v-307zM383 512v717h240q113 0 179 -59.5t66 -157.5q0 -139 -120 -193l133 -307h-144l-116 285h-103v-285h-135zM518 907h105q51 0 79.5 29t28.5 78t-28.5 77.5t-79.5 28.5h-105v-213z" />
<glyph unicode="&#xaf;" d="M275 1364v174h680v-174h-680z" />
<glyph unicode="&#xb0;" d="M295 1206q0 137 89 223.5t230 86.5t230.5 -86.5t89.5 -223.5t-89.5 -223t-230.5 -86t-230 86t-89 223zM449 1206q0 -78 45.5 -127t119.5 -49t120 49t46 127t-46 127t-120 49t-119.5 -49t-45.5 -127z" />
<glyph unicode="&#xb1;" d="M131 584v200h377v383h219v-383h379v-200h-379v-416h363v-168h-949v168h367v416h-377z" />
<glyph unicode="&#xb2;" d="M297 1413q2 86 45 153.5t114.5 105.5t161.5 38q137 0 228.5 -81t91.5 -210q0 -76 -44 -142.5t-122 -127.5l-270 -221h440v-146h-627v172l371 308q41 33 65.5 70.5t24.5 82.5q0 68 -45 109t-113 41t-113.5 -42t-45.5 -110h-162z" />
<glyph unicode="&#xb3;" d="M276 1075h164q0 -70 49.5 -113.5t126.5 -43.5q78 0 127.5 46t49.5 117q0 72 -49.5 117t-127.5 45h-81v141l225 170h-438v146h602v-156l-228 -178q117 -18 188.5 -94t71.5 -191q0 -137 -95 -223t-245 -86t-245 84t-95 219z" />
<glyph unicode="&#xb4;" d="M457 1321l217 287h238l-232 -287h-223z" />
<glyph unicode="&#xb5;" d="M174 -369v1495h221v-710q0 -115 56.5 -179.5t162.5 -64.5q104 0 164 64.5t60 179.5v710h221v-1126h-219l4 215h-6q-8 -109 -61.5 -172t-164.5 -63t-161 63t-58 172h-4l6 -262v-322h-221z" />
<glyph unicode="&#xb6;" d="M125 983v164q0 158 106.5 253t282.5 95h182v-1864h-182v1004q-176 0 -282.5 96t-106.5 252zM868 -369v1864h183v-1864h-183z" />
<glyph unicode="&#xb7;" d="M434 705q0 80 50.5 130t129.5 50q80 0 130.5 -50t50.5 -130t-50.5 -128t-130.5 -48t-130 48t-50 128z" />
<glyph unicode="&#xb8;" d="M412 -307h149q45 0 74 23.5t29 50.5q0 39 -57.5 65.5t-163.5 26.5l71 188h127l-43 -121q57 -6 116.5 -27.5t101.5 -59.5t42 -93q0 -72 -70.5 -124t-187.5 -52h-188v123z" />
<glyph unicode="&#xb9;" d="M303 782v148h291v633l-285 -177v166l234 148h215v-770h229v-148h-684z" />
<glyph unicode="&#xba;" d="M367 1139v145q0 100 68.5 162.5t178.5 62.5q111 0 179.5 -62.5t68.5 -162.5v-145q0 -98 -68.5 -161t-179.5 -63t-179 62.5t-68 161.5zM487 1139q0 -55 35 -89t92 -34t92 33.5t35 89.5v145q0 55 -34.5 90t-92.5 35q-57 0 -92 -35t-35 -90v-145z" />
<glyph unicode="&#xbb;" d="M61 1065h246l375 -492l-375 -491h-244l379 493zM555 82l379 493l-379 490h246l377 -492l-377 -491h-246z" />
<glyph unicode="&#xbc;" d="M2 0l569 829h-505v117h239v455q-10 -16 -29.5 -39t-42.5 -43l-127 -107v162l148 121h192v-549h195v-18l391 567h197l-1032 -1495h-195zM618 137v176l259 353h159l-276 -381v-33h211v174h141v-426h-141v137h-353z" />
<glyph unicode="&#xbd;" d="M2 0l571 829h-507v119h239v453q-10 -14 -29.5 -38t-42.5 -42l-127 -107v160l148 121h192v-547h207l379 547h197l-1032 -1495h-195zM643 0v147l258 148q125 70 125 149q0 53 -34 85t-87 32q-55 0 -88 -32.5t-33 -86.5h-141q2 104 75 169t187 65q119 0 190.5 -61.5 t71.5 -161.5q0 -135 -184 -236l-168 -94v-21q23 4 64 10.5t79 6.5h220v-119h-535z" />
<glyph unicode="&#xbe;" d="M2 0l1030 1495h197l-1032 -1495h-195zM47 1034h141q0 -45 35 -72.5t92 -27.5t91 28.5t34 75.5q0 45 -33.5 74t-89.5 29h-61v123l156 120h-316v111h453v-117l-168 -131q90 -12 145.5 -68.5t55.5 -140.5q0 -98 -73 -158.5t-194 -60.5t-194.5 59.5t-73.5 155.5zM618 137v176 l259 353h159l-276 -381v-33h211v174h141v-426h-141v137h-353z" />
<glyph unicode="&#xbf;" d="M221 72q0 121 50.5 215t139.5 148t210 61v178h204l4 -369h-133q-117 0 -185.5 -63.5t-68.5 -169.5t69 -169t187 -63h281v-209h-274q-147 0 -256 54.5t-168.5 154t-59.5 232.5zM561 1006q0 57 37 94t96 37h60q59 0 96 -36t37 -93t-37 -93t-96 -36h-62q-61 0 -96 35.5 t-35 91.5z" />
<glyph unicode="&#xc0;" d="M88 0l381 1495h291l383 -1495h-225l-91 379h-424l-90 -379h-225zM290 1946h246l221 -287h-229zM444 563h340l-102 430q-27 115 -44 199t-24 117q-6 -33 -22.5 -117t-44.5 -197z" />
<glyph unicode="&#xc1;" d="M88 0l381 1495h291l383 -1495h-225l-91 379h-424l-90 -379h-225zM444 563h340l-102 430q-27 115 -44 199t-24 117q-6 -33 -22.5 -117t-44.5 -197zM477 1659l217 287h238l-232 -287h-223z" />
<glyph unicode="&#xc2;" d="M88 0l381 1495h291l383 -1495h-225l-91 379h-424l-90 -379h-225zM230 1659l282 287h205l283 -287h-226l-161 156l-156 -156h-227zM444 563h340l-102 430q-27 115 -44 199t-24 117q-6 -33 -22.5 -117t-44.5 -197z" />
<glyph unicode="&#xc3;" d="M88 0l381 1495h291l383 -1495h-225l-91 379h-424l-90 -379h-225zM275 1671v64q0 96 54 153.5t142 57.5q63 0 102.5 -21.5t66 -48.5t51 -47.5t57.5 -20.5q61 0 61 66v61h146v-65q0 -96 -54.5 -152.5t-142.5 -56.5q-63 0 -102 20.5t-66 47t-51.5 48t-57.5 21.5 q-61 0 -61 -72v-55h-145zM444 563h340l-102 430q-27 115 -44 199t-24 117q-6 -33 -22.5 -117t-44.5 -197z" />
<glyph unicode="&#xc4;" d="M88 0l381 1495h291l383 -1495h-225l-91 379h-424l-90 -379h-225zM240 1802q0 66 38 104t103 38q63 0 102 -38t39 -104q0 -63 -39 -100t-102 -37q-66 0 -103.5 37t-37.5 100zM444 563h340l-102 430q-27 115 -44 199t-24 117q-6 -33 -22.5 -117t-44.5 -197zM709 1802 q0 66 38 104t101 38q66 0 103.5 -38t37.5 -104q0 -63 -37.5 -100t-103.5 -37q-63 0 -101 37t-38 100z" />
<glyph unicode="&#xc5;" d="M88 0l381 1495h291l383 -1495h-225l-91 379h-424l-90 -379h-225zM357 1802q0 109 70.5 175.5t187.5 66.5t187.5 -66.5t70.5 -175.5t-70.5 -175t-187.5 -66t-187.5 66.5t-70.5 174.5zM444 563h340l-102 430q-27 115 -44 199t-24 117q-6 -33 -22.5 -117t-44.5 -197z M492 1802q0 -55 34 -89t89 -34t88.5 34t33.5 89t-33.5 90t-88.5 35t-89 -34.5t-34 -90.5z" />
<glyph unicode="&#xc6;" d="M43 0l293 1495h838v-195h-363v-430h311v-198h-311v-477h363v-195h-562v393h-278l-72 -393h-219zM365 565h247v735h-110z" />
<glyph unicode="&#xc7;" d="M172 416v663q0 203 124 320t335 117q209 0 332.5 -118t123.5 -319h-221q0 117 -62.5 178.5t-172.5 61.5q-113 0 -175.5 -61.5t-62.5 -178.5v-663q0 -117 62.5 -178.5t175.5 -61.5q111 0 173 61.5t62 178.5h221q0 -201 -123.5 -318.5t-332.5 -117.5l-19 -54 q55 -6 115.5 -27.5t102.5 -59.5t42 -93q0 -72 -71.5 -124t-186.5 -52h-190v123h149q47 0 76 23.5t29 50.5q0 39 -58.5 65.5t-162.5 26.5l49 133q-156 33 -245 143.5t-89 280.5z" />
<glyph unicode="&#xc8;" d="M193 0v1495h878v-197h-661v-426h589v-190h-589v-485h661v-197h-878zM309 1946h246l221 -287h-229z" />
<glyph unicode="&#xc9;" d="M193 0v1495h878v-197h-661v-426h589v-190h-589v-485h661v-197h-878zM496 1659l217 287h238l-232 -287h-223z" />
<glyph unicode="&#xca;" d="M193 0v1495h878v-197h-661v-426h589v-190h-589v-485h661v-197h-878zM248 1659l282 287h205l283 -287h-226l-161 156l-156 -156h-227z" />
<glyph unicode="&#xcb;" d="M193 0v1495h878v-197h-661v-426h589v-190h-589v-485h661v-197h-878zM258 1802q0 66 38 104t103 38q63 0 102 -38t39 -104q0 -63 -39 -100t-102 -37q-66 0 -103.5 37t-37.5 100zM727 1802q0 66 38 104t101 38q66 0 103.5 -38t37.5 -104q0 -63 -37.5 -100t-103.5 -37 q-63 0 -101 37t-38 100z" />
<glyph unicode="&#xcc;" d="M201 0v201h301v1093h-301v201h829v-201h-303v-1093h303v-201h-829zM290 1946h246l221 -287h-229z" />
<glyph unicode="&#xcd;" d="M201 0v201h301v1093h-301v201h829v-201h-303v-1093h303v-201h-829zM477 1659l217 287h238l-232 -287h-223z" />
<glyph unicode="&#xce;" d="M201 0v201h301v1093h-301v201h829v-201h-303v-1093h303v-201h-829zM230 1659l282 287h205l283 -287h-226l-161 156l-156 -156h-227z" />
<glyph unicode="&#xcf;" d="M201 0v201h301v1093h-301v201h829v-201h-303v-1093h303v-201h-829zM240 1802q0 66 38 104t103 38q63 0 102 -38t39 -104q0 -63 -39 -100t-102 -37q-66 0 -103.5 37t-37.5 100zM709 1802q0 66 38 104t101 38q66 0 103.5 -38t37.5 -104q0 -63 -37.5 -100t-103.5 -37 q-63 0 -101 37t-38 100z" />
<glyph unicode="&#xd0;" d="M20 680v166h150v649h418q147 0 255.5 -56.5t169 -159.5t60.5 -241v-577q0 -141 -60.5 -243.5t-169 -160t-255.5 -57.5h-418v680h-150zM391 199h197q121 0 192.5 69.5t71.5 192.5v577q0 119 -71.5 189.5t-192.5 70.5h-197v-452h203v-166h-203v-481z" />
<glyph unicode="&#xd1;" d="M166 0v1495h280l435 -1243q-4 57 -10.5 139t-9.5 170t-3 162v772h205v-1495h-279l-434 1243q4 -55 9.5 -134t9.5 -165t4 -160v-784h-207zM275 1671v64q0 96 54 153.5t142 57.5q63 0 102.5 -21.5t66 -48.5t51 -47.5t57.5 -20.5q61 0 61 66v61h146v-65q0 -96 -54.5 -152.5 t-142.5 -56.5q-63 0 -102 20.5t-66 47t-51.5 48t-57.5 21.5q-61 0 -61 -72v-55h-145z" />
<glyph unicode="&#xd2;" d="M164 436v623q0 217 121 337t329 120q209 0 330 -120t121 -335v-625q0 -217 -121 -336.5t-330 -119.5t-329.5 119.5t-120.5 336.5zM290 1946h246l221 -287h-229zM385 416q0 -117 59 -178.5t170 -61.5t170.5 61.5t59.5 178.5v663q0 117 -58.5 178.5t-171.5 61.5t-171 -61.5 t-58 -178.5v-663z" />
<glyph unicode="&#xd3;" d="M164 436v623q0 217 121 337t329 120q209 0 330 -120t121 -335v-625q0 -217 -121 -336.5t-330 -119.5t-329.5 119.5t-120.5 336.5zM385 416q0 -117 59 -178.5t170 -61.5t170.5 61.5t59.5 178.5v663q0 117 -58.5 178.5t-171.5 61.5t-171 -61.5t-58 -178.5v-663zM477 1659 l217 287h238l-232 -287h-223z" />
<glyph unicode="&#xd4;" d="M164 436v623q0 217 121 337t329 120q209 0 330 -120t121 -335v-625q0 -217 -121 -336.5t-330 -119.5t-329.5 119.5t-120.5 336.5zM230 1659l282 287h205l283 -287h-226l-161 156l-156 -156h-227zM385 416q0 -117 59 -178.5t170 -61.5t170.5 61.5t59.5 178.5v663 q0 117 -58.5 178.5t-171.5 61.5t-171 -61.5t-58 -178.5v-663z" />
<glyph unicode="&#xd5;" d="M164 436v623q0 217 121 337t329 120q209 0 330 -120t121 -335v-625q0 -217 -121 -336.5t-330 -119.5t-329.5 119.5t-120.5 336.5zM275 1671v64q0 96 54 153.5t142 57.5q63 0 102.5 -21.5t66 -48.5t51 -47.5t57.5 -20.5q61 0 61 66v61h146v-65q0 -96 -54.5 -152.5 t-142.5 -56.5q-63 0 -102 20.5t-66 47t-51.5 48t-57.5 21.5q-61 0 -61 -72v-55h-145zM385 416q0 -117 59 -178.5t170 -61.5t170.5 61.5t59.5 178.5v663q0 117 -58.5 178.5t-171.5 61.5t-171 -61.5t-58 -178.5v-663z" />
<glyph unicode="&#xd6;" d="M164 436v623q0 217 121 337t329 120q209 0 330 -120t121 -335v-625q0 -217 -121 -336.5t-330 -119.5t-329.5 119.5t-120.5 336.5zM240 1802q0 66 38 104t103 38q63 0 102 -38t39 -104q0 -63 -39 -100t-102 -37q-66 0 -103.5 37t-37.5 100zM385 416q0 -117 59 -178.5 t170 -61.5t170.5 61.5t59.5 178.5v663q0 117 -58.5 178.5t-171.5 61.5t-171 -61.5t-58 -178.5v-663zM709 1802q0 66 38 104t101 38q66 0 103.5 -38t37.5 -104q0 -63 -37.5 -100t-103.5 -37q-63 0 -101 37t-38 100z" />
<glyph unicode="&#xd7;" d="M199 395l274 275l-274 278l135 135l278 -274l281 281l137 -138l-282 -282l278 -275l-139 -139l-275 279l-278 -279z" />
<glyph unicode="&#xd8;" d="M59 -82l156 272q-51 96 -51 226v663q0 201 121 319t329 118q182 0 299 -91l64 111h192l-143 -254q39 -88 39 -201v-665q0 -201 -121 -318.5t-330 -117.5q-168 0 -282 77l-80 -139h-193zM381 485l424 750q-59 84 -191 84q-113 0 -173 -61.5t-60 -178.5v-594zM436 244 q61 -68 178 -68q113 0 173.5 61.5t60.5 178.5v553z" />
<glyph unicode="&#xd9;" d="M166 418v1077h221v-1075q0 -115 57.5 -180.5t169.5 -65.5q113 0 170.5 65.5t57.5 180.5v1075h221v-1077q0 -205 -117 -321.5t-332 -116.5t-331.5 117.5t-116.5 320.5zM290 1946h246l221 -287h-229z" />
<glyph unicode="&#xda;" d="M166 418v1077h221v-1075q0 -115 57.5 -180.5t169.5 -65.5q113 0 170.5 65.5t57.5 180.5v1075h221v-1077q0 -205 -117 -321.5t-332 -116.5t-331.5 117.5t-116.5 320.5zM477 1659l217 287h238l-232 -287h-223z" />
<glyph unicode="&#xdb;" d="M166 418v1077h221v-1075q0 -115 57.5 -180.5t169.5 -65.5q113 0 170.5 65.5t57.5 180.5v1075h221v-1077q0 -205 -117 -321.5t-332 -116.5t-331.5 117.5t-116.5 320.5zM230 1659l282 287h205l283 -287h-226l-161 156l-156 -156h-227z" />
<glyph unicode="&#xdc;" d="M166 418v1077h221v-1075q0 -115 57.5 -180.5t169.5 -65.5q113 0 170.5 65.5t57.5 180.5v1075h221v-1077q0 -205 -117 -321.5t-332 -116.5t-331.5 117.5t-116.5 320.5zM240 1802q0 66 38 104t103 38q63 0 102 -38t39 -104q0 -63 -39 -100t-102 -37q-66 0 -103.5 37 t-37.5 100zM709 1802q0 66 38 104t101 38q66 0 103.5 -38t37.5 -104q0 -63 -37.5 -100t-103.5 -37q-63 0 -101 37t-38 100z" />
<glyph unicode="&#xdd;" d="M59 1495h234l260 -565q27 -55 43 -104.5t22 -73.5q6 25 22.5 73.5t41.5 104.5l258 565h229l-444 -944v-551h-221v551zM477 1659l217 287h238l-232 -287h-223z" />
<glyph unicode="&#xde;" d="M172 0v1495h221v-297h293q207 0 330 -114.5t123 -305.5q0 -193 -122 -305.5t-331 -112.5h-293v-360h-221zM393 551h279q113 0 177 60.5t64 166.5t-64.5 167t-176.5 61h-279v-455z" />
<glyph unicode="&#xdf;" d="M168 0v1079q0 129 57.5 227.5t159.5 154t236 55.5q133 0 234 -49.5t157.5 -136.5t56.5 -200q0 -123 -66.5 -213t-171.5 -114v-4q125 -25 204 -130.5t79 -248.5q0 -125 -58.5 -219.5t-164 -147.5t-244.5 -53h-112v197h96q115 0 186.5 68.5t71.5 178.5q0 109 -68.5 177.5 t-177.5 68.5h-108v182h86q100 0 164.5 62.5t64.5 163.5q0 100 -64.5 163.5t-164.5 63.5q-102 0 -167 -67.5t-65 -178.5v-1079h-221z" />
<glyph unicode="&#xe0;" d="M127 332q0 160 108.5 257t288.5 97h312v82q0 195 -220 195q-98 0 -157.5 -37t-63.5 -103h-217q10 141 127 232.5t313 91.5q209 0 324 -99.5t115 -277.5v-770h-217v211h-2q-14 -109 -102.5 -170t-233.5 -61q-172 0 -273.5 97t-101.5 255zM301 1608h246l221 -287h-229z M348 348q0 -86 57.5 -136t159.5 -50q125 0 198 60.5t73 162.5v145h-295q-88 0 -140.5 -51t-52.5 -131z" />
<glyph unicode="&#xe1;" d="M127 332q0 160 108.5 257t288.5 97h312v82q0 195 -220 195q-98 0 -157.5 -37t-63.5 -103h-217q10 141 127 232.5t313 91.5q209 0 324 -99.5t115 -277.5v-770h-217v211h-2q-14 -109 -102.5 -170t-233.5 -61q-172 0 -273.5 97t-101.5 255zM348 348q0 -86 57.5 -136 t159.5 -50q125 0 198 60.5t73 162.5v145h-295q-88 0 -140.5 -51t-52.5 -131zM488 1321l217 287h238l-232 -287h-223z" />
<glyph unicode="&#xe2;" d="M127 332q0 160 108.5 257t288.5 97h312v82q0 195 -220 195q-98 0 -157.5 -37t-63.5 -103h-217q10 141 127 232.5t313 91.5q209 0 324 -99.5t115 -277.5v-770h-217v211h-2q-14 -109 -102.5 -170t-233.5 -61q-172 0 -273.5 97t-101.5 255zM240 1321l282 287h205l283 -287 h-226l-161 156l-156 -156h-227zM348 348q0 -86 57.5 -136t159.5 -50q125 0 198 60.5t73 162.5v145h-295q-88 0 -140.5 -51t-52.5 -131z" />
<glyph unicode="&#xe3;" d="M127 332q0 160 108.5 257t288.5 97h312v82q0 195 -220 195q-98 0 -157.5 -37t-63.5 -103h-217q10 141 127 232.5t313 91.5q209 0 324 -99.5t115 -277.5v-770h-217v211h-2q-14 -109 -102.5 -170t-233.5 -61q-172 0 -273.5 97t-101.5 255zM285 1333v64q0 96 54 153.5 t142 57.5q63 0 102.5 -21.5t66 -48.5t51 -47.5t57.5 -20.5q61 0 61 66v61h146v-65q0 -96 -54.5 -152.5t-142.5 -56.5q-63 0 -102 20.5t-66 47t-51.5 48t-57.5 21.5q-61 0 -61 -71v-56h-145zM348 348q0 -86 57.5 -136t159.5 -50q125 0 198 60.5t73 162.5v145h-295 q-88 0 -140.5 -51t-52.5 -131z" />
<glyph unicode="&#xe4;" d="M127 332q0 160 108.5 257t288.5 97h312v82q0 195 -220 195q-98 0 -157.5 -37t-63.5 -103h-217q10 141 127 232.5t313 91.5q209 0 324 -99.5t115 -277.5v-770h-217v211h-2q-14 -109 -102.5 -170t-233.5 -61q-172 0 -273.5 97t-101.5 255zM250 1460q0 66 38 104t103 38 q63 0 102 -38t39 -104q0 -63 -39 -101t-102 -38q-66 0 -103.5 38t-37.5 101zM348 348q0 -86 57.5 -136t159.5 -50q125 0 198 60.5t73 162.5v145h-295q-88 0 -140.5 -51t-52.5 -131zM719 1460q0 66 38 104t101 38q66 0 103.5 -38t37.5 -104q0 -63 -37.5 -101t-103.5 -38 q-63 0 -101 38t-38 101z" />
<glyph unicode="&#xe5;" d="M127 332q0 160 108.5 257t288.5 97h312v82q0 195 -220 195q-98 0 -157.5 -37t-63.5 -103h-217q10 141 127 232.5t313 91.5q209 0 324 -99.5t115 -277.5v-770h-217v211h-2q-14 -109 -102.5 -170t-233.5 -61q-172 0 -273.5 97t-101.5 255zM348 348q0 -86 57.5 -136 t159.5 -50q125 0 198 60.5t73 162.5v145h-295q-88 0 -140.5 -51t-52.5 -131zM367 1481q0 109 70.5 175t187.5 66t187.5 -66.5t70.5 -174.5q0 -109 -70.5 -175.5t-187.5 -66.5t-187.5 66.5t-70.5 175.5zM502 1481q0 -55 34 -89t89 -34t88.5 33.5t33.5 89.5q0 55 -33.5 90 t-88.5 35t-89 -35t-34 -90z" />
<glyph unicode="&#xe6;" d="M61 326q0 152 89.5 247t232.5 95h143v149q0 78 -32.5 120t-92.5 42q-57 0 -92 -38t-35 -101h-186q0 137 79 222t206 85q98 0 167.5 -50t80.5 -134q10 84 77.5 134t161.5 50q133 0 217 -91t84 -237v-299h-448v-213q0 -76 33.5 -118t93.5 -42q59 0 93 39t34 103h194 q0 -137 -83 -223t-216 -86q-90 0 -158.5 51t-82.5 133q-14 -82 -86 -133t-170 -51q-135 0 -219.5 96t-84.5 250zM256 332q0 -84 36.5 -134.5t102.5 -50.5q59 0 95 43t36 117v213h-141q-59 0 -94 -51t-35 -137zM713 668h254v151q0 74 -34 117t-93 43q-57 0 -92 -43t-35 -117 v-151z" />
<glyph unicode="&#xe7;" d="M166 416v295q0 203 127 319.5t338 116.5q205 0 327.5 -106.5t131.5 -290.5h-220q-6 96 -70.5 149t-168.5 53q-113 0 -178.5 -62.5t-65.5 -176.5v-297q0 -117 65.5 -179.5t178.5 -62.5q106 0 169.5 53.5t69.5 151.5h220q-8 -184 -131 -291.5t-328 -107.5h-6l-19 -54 q55 -6 115.5 -27.5t102.5 -59.5t42 -93q0 -72 -71.5 -124t-186.5 -52h-190v123h149q47 0 76 23.5t29 50.5q0 39 -58.5 65.5t-162.5 26.5l51 133q-156 35 -246 145.5t-90 278.5z" />
<glyph unicode="&#xe8;" d="M158 430v266q0 209 125 330t331 121q139 0 241.5 -54.5t159 -152.5t56.5 -229v-203h-700v-92q0 -119 65.5 -184.5t177.5 -65.5q92 0 153.5 33.5t74.5 93.5h219q-23 -143 -145 -228t-302 -85q-207 0 -331.5 120.5t-124.5 329.5zM290 1608h246l221 -287h-229zM371 664h487 v49q0 125 -63.5 192.5t-180.5 67.5t-180 -68.5t-63 -193.5v-47z" />
<glyph unicode="&#xe9;" d="M158 430v266q0 209 125 330t331 121q139 0 241.5 -54.5t159 -152.5t56.5 -229v-203h-700v-92q0 -119 65.5 -184.5t177.5 -65.5q92 0 153.5 33.5t74.5 93.5h219q-23 -143 -145 -228t-302 -85q-207 0 -331.5 120.5t-124.5 329.5zM371 664h487v49q0 125 -63.5 192.5 t-180.5 67.5t-180 -68.5t-63 -193.5v-47zM477 1321l217 287h238l-232 -287h-223z" />
<glyph unicode="&#xea;" d="M158 430v266q0 209 125 330t331 121q139 0 241.5 -54.5t159 -152.5t56.5 -229v-203h-700v-92q0 -119 65.5 -184.5t177.5 -65.5q92 0 153.5 33.5t74.5 93.5h219q-23 -143 -145 -228t-302 -85q-207 0 -331.5 120.5t-124.5 329.5zM230 1321l282 287h205l283 -287h-226 l-161 156l-156 -156h-227zM371 664h487v49q0 125 -63.5 192.5t-180.5 67.5t-180 -68.5t-63 -193.5v-47z" />
<glyph unicode="&#xeb;" d="M158 430v266q0 209 125 330t331 121q139 0 241.5 -54.5t159 -152.5t56.5 -229v-203h-700v-92q0 -119 65.5 -184.5t177.5 -65.5q92 0 153.5 33.5t74.5 93.5h219q-23 -143 -145 -228t-302 -85q-207 0 -331.5 120.5t-124.5 329.5zM240 1460q0 66 38 104t103 38q63 0 102 -38 t39 -104q0 -63 -39 -101t-102 -38q-66 0 -103.5 38t-37.5 101zM371 664h487v49q0 125 -63.5 192.5t-180.5 67.5t-180 -68.5t-63 -193.5v-47zM709 1460q0 66 38 104t101 38q66 0 103.5 -38t37.5 -104q0 -63 -37.5 -101t-103.5 -38q-63 0 -101 38t-38 101z" />
<glyph unicode="&#xec;" d="M166 0v201h391v725h-350v200h571v-925h363v-201h-975zM325 1608h246l221 -287h-229z" />
<glyph unicode="&#xed;" d="M166 0v201h391v725h-350v200h571v-925h363v-201h-975zM512 1321l217 287h238l-232 -287h-223z" />
<glyph unicode="&#xee;" d="M166 0v201h391v725h-350v200h571v-925h363v-201h-975zM265 1321l282 287h205l283 -287h-226l-161 156l-156 -156h-227z" />
<glyph unicode="&#xef;" d="M166 0v201h391v725h-350v200h571v-925h363v-201h-975zM275 1460q0 66 38 104t103 38q63 0 102 -38t39 -104q0 -63 -39 -101t-102 -38q-66 0 -103.5 38t-37.5 101zM744 1460q0 66 38 104t101 38q66 0 103.5 -38t37.5 -104q0 -63 -37.5 -101t-103.5 -38q-63 0 -101 38 t-38 101z" />
<glyph unicode="&#xf0;" d="M125 453q0 137 53 238.5t149.5 157.5t225.5 56q94 0 159.5 -44t90.5 -85h24q-6 14 -39.5 69.5t-99.5 143.5l-127 172l-328 -143v180l228 100l-146 197h252l84 -117l314 135v-180l-215 -92l145 -205q102 -139 155.5 -285.5t53.5 -277.5q0 -147 -60.5 -257t-171 -170 t-260.5 -60q-145 0 -254.5 58t-171 163.5t-61.5 245.5zM346 453q0 -125 73.5 -200t192.5 -75q123 0 197 75t74 200t-74 200.5t-197 75.5q-119 0 -192.5 -75.5t-73.5 -200.5z" />
<glyph unicode="&#xf1;" d="M172 0v1126h219v-215q16 111 95 173.5t206 62.5q168 0 268.5 -107.5t100.5 -289.5v-750h-221v717q0 117 -59.5 179t-162.5 62q-104 0 -164.5 -65.5t-60.5 -181.5v-711h-221zM285 1333v64q0 96 54 153.5t142 57.5q63 0 102.5 -21.5t66 -48.5t51 -47.5t57.5 -20.5 q61 0 61 66v61h146v-65q0 -96 -54.5 -152.5t-142.5 -56.5q-63 0 -102 20.5t-66 47t-51.5 48t-57.5 21.5q-61 0 -61 -71v-56h-145z" />
<glyph unicode="&#xf2;" d="M158 432v262q0 211 122.5 331t333.5 120t334 -120t123 -331v-262q0 -209 -124 -329.5t-333 -120.5t-332.5 120.5t-123.5 329.5zM290 1608h246l221 -287h-229zM379 418q0 -117 62 -179.5t173 -62.5t173.5 62.5t62.5 179.5v291q0 117 -62.5 179t-173.5 62t-173 -62.5 t-62 -178.5v-291z" />
<glyph unicode="&#xf3;" d="M158 432v262q0 211 122.5 331t333.5 120t334 -120t123 -331v-262q0 -209 -124 -329.5t-333 -120.5t-332.5 120.5t-123.5 329.5zM379 418q0 -117 62 -179.5t173 -62.5t173.5 62.5t62.5 179.5v291q0 117 -62.5 179t-173.5 62t-173 -62.5t-62 -178.5v-291zM477 1321l217 287 h238l-232 -287h-223z" />
<glyph unicode="&#xf4;" d="M158 432v262q0 211 122.5 331t333.5 120t334 -120t123 -331v-262q0 -209 -124 -329.5t-333 -120.5t-332.5 120.5t-123.5 329.5zM230 1321l282 287h205l283 -287h-226l-161 156l-156 -156h-227zM379 418q0 -117 62 -179.5t173 -62.5t173.5 62.5t62.5 179.5v291 q0 117 -62.5 179t-173.5 62t-173 -62.5t-62 -178.5v-291z" />
<glyph unicode="&#xf5;" d="M158 432v262q0 211 122.5 331t333.5 120t334 -120t123 -331v-262q0 -209 -124 -329.5t-333 -120.5t-332.5 120.5t-123.5 329.5zM275 1333v64q0 96 54 153.5t142 57.5q63 0 102.5 -21.5t66 -48.5t51 -47.5t57.5 -20.5q61 0 61 66v61h146v-65q0 -96 -54.5 -152.5 t-142.5 -56.5q-63 0 -102 20.5t-66 47t-51.5 48t-57.5 21.5q-61 0 -61 -71v-56h-145zM379 418q0 -117 62 -179.5t173 -62.5t173.5 62.5t62.5 179.5v291q0 117 -62.5 179t-173.5 62t-173 -62.5t-62 -178.5v-291z" />
<glyph unicode="&#xf6;" d="M158 432v262q0 211 122.5 331t333.5 120t334 -120t123 -331v-262q0 -209 -124 -329.5t-333 -120.5t-332.5 120.5t-123.5 329.5zM240 1460q0 66 38 104t103 38q63 0 102 -38t39 -104q0 -63 -39 -101t-102 -38q-66 0 -103.5 38t-37.5 101zM379 418q0 -117 62 -179.5 t173 -62.5t173.5 62.5t62.5 179.5v291q0 117 -62.5 179t-173.5 62t-173 -62.5t-62 -178.5v-291zM709 1460q0 66 38 104t101 38q66 0 103.5 -38t37.5 -104q0 -63 -37.5 -101t-103.5 -38q-63 0 -101 38t-38 101z" />
<glyph unicode="&#xf7;" d="M205 584v192h819v-192h-819zM434 254q0 74 49 119t131 45t131.5 -45t49.5 -119t-49.5 -118t-131.5 -44t-131 44t-49 118zM434 1106q0 72 49 117t131 45t131.5 -45t49.5 -117q0 -74 -49.5 -119t-131.5 -45t-131 45t-49 119z" />
<glyph unicode="&#xf8;" d="M66 -61l161 229q-63 104 -63 248v295q0 201 121 318.5t329 117.5q152 0 260 -64l89 125h200l-168 -237q70 -106 70 -258v-297q0 -201 -121 -318.5t-330 -117.5q-160 0 -270 69l-78 -110h-200zM371 416q0 -23 2 -41l383 543q-57 35 -142 34q-115 0 -179 -63.5t-64 -177.5 v-295zM461 217q61 -43 153 -43q115 0 179.5 63.5t64.5 178.5v295q0 31 -6 59z" />
<glyph unicode="&#xf9;" d="M168 418v708h221v-706q0 -115 59.5 -181.5t163.5 -66.5q106 0 167 66.5t61 181.5v706h221v-708q0 -203 -122 -320.5t-327 -117.5t-324.5 117.5t-119.5 320.5zM290 1608h246l221 -287h-229z" />
<glyph unicode="&#xfa;" d="M168 418v708h221v-706q0 -115 59.5 -181.5t163.5 -66.5q106 0 167 66.5t61 181.5v706h221v-708q0 -203 -122 -320.5t-327 -117.5t-324.5 117.5t-119.5 320.5zM477 1321l217 287h238l-232 -287h-223z" />
<glyph unicode="&#xfb;" d="M168 418v708h221v-706q0 -115 59.5 -181.5t163.5 -66.5q106 0 167 66.5t61 181.5v706h221v-708q0 -203 -122 -320.5t-327 -117.5t-324.5 117.5t-119.5 320.5zM230 1321l282 287h205l283 -287h-226l-161 156l-156 -156h-227z" />
<glyph unicode="&#xfc;" d="M168 418v708h221v-706q0 -115 59.5 -181.5t163.5 -66.5q106 0 167 66.5t61 181.5v706h221v-708q0 -203 -122 -320.5t-327 -117.5t-324.5 117.5t-119.5 320.5zM240 1460q0 66 38 104t103 38q63 0 102 -38t39 -104q0 -63 -39 -101t-102 -38q-66 0 -103.5 38t-37.5 101z M709 1460q0 66 38 104t101 38q66 0 103.5 -38t37.5 -104q0 -63 -37.5 -101t-103.5 -38q-63 0 -101 38t-38 101z" />
<glyph unicode="&#xfd;" d="M92 1126h236l239 -634q18 -45 34.5 -98.5t23.5 -94.5q8 41 23.5 94t31.5 99l223 634h234l-555 -1495h-232l164 435zM477 1321l217 287h238l-232 -287h-223z" />
<glyph unicode="&#xfe;" d="M166 -348v1843h221v-321l-6 -261q25 109 106.5 171.5t204.5 62.5q168 0 268.5 -114.5t100.5 -311.5v-318q0 -195 -101.5 -309t-267.5 -114q-123 0 -203.5 61t-105.5 172v-561h-217zM387 420q0 -119 59.5 -183.5t165.5 -64.5t167 56.5t61 181.5v309q0 123 -60.5 179 t-167.5 56q-106 0 -165.5 -64.5t-59.5 -180.5v-289z" />
<glyph unicode="&#xff;" d="M92 1126h236l239 -634q18 -45 34.5 -98.5t23.5 -94.5q8 41 23.5 94t31.5 99l223 634h234l-555 -1495h-232l164 435zM240 1460q0 66 38 104t103 38q63 0 102 -38t39 -104q0 -63 -39 -101t-102 -38q-66 0 -103.5 38t-37.5 101zM709 1460q0 66 38 104t101 38q66 0 103.5 -38 t37.5 -104q0 -63 -37.5 -101t-103.5 -38q-63 0 -101 38t-38 101z" />
<glyph unicode="&#x152;" d="M76 379v741q0 184 83 290t228 106q72 0 120 -30t73.5 -72t31.5 -83h11v164h559v-195h-355v-432h303v-194h-303v-479h355v-195h-559v168h-11q-6 -41 -31.5 -83t-73.5 -71.5t-120 -29.5q-145 0 -228 105.5t-83 289.5zM291 379q0 -96 44 -150.5t120 -54.5q78 0 120.5 54.5 t42.5 150.5v741q0 96 -43 150.5t-120 54.5q-76 0 -120 -55.5t-44 -149.5v-741z" />
<glyph unicode="&#x153;" d="M72 301v524q0 147 80.5 234.5t216.5 87.5q80 0 132 -25.5t77.5 -63.5t29.5 -71h13q2 33 28.5 71t77.5 63.5t133 25.5q135 0 216 -87t81 -235v-313h-446v-211q0 -70 33.5 -110.5t91.5 -40.5q51 0 84.5 30.5t40.5 85.5h192q-14 -131 -94 -208.5t-199 -77.5q-82 0 -133 25.5 t-77.5 63t-28.5 72.5h-13q-4 -35 -29.5 -72.5t-77.5 -63t-132 -25.5q-135 0 -216 87t-81 234zM264 301q0 -70 35 -110.5t94 -40.5q57 0 91 40.5t34 110.5v524q0 70 -33.5 111t-91.5 41q-59 0 -94 -41t-35 -111v-524zM711 666h254v159q0 70 -35 111t-94 41q-57 0 -91 -41 t-34 -111v-159z" />
<glyph unicode="&#x178;" d="M59 1495h234l260 -565q27 -55 43 -104.5t22 -73.5q6 25 22.5 73.5t41.5 104.5l258 565h229l-444 -944v-551h-221v551zM240 1802q0 66 38 104t103 38q63 0 102 -38t39 -104q0 -63 -39 -100t-102 -37q-66 0 -103.5 37t-37.5 100zM709 1802q0 66 38 104t101 38 q66 0 103.5 -38t37.5 -104q0 -63 -37.5 -100t-103.5 -37q-63 0 -101 37t-38 100z" />
<glyph unicode="&#x2c6;" d="M230 1321l282 287h205l283 -287h-226l-161 156l-156 -156h-227z" />
<glyph unicode="&#x2dc;" d="M275 1333v64q0 96 54 153.5t142 57.5q63 0 102.5 -21.5t66 -48.5t51 -47.5t57.5 -20.5q61 0 61 66v61h146v-65q0 -96 -54.5 -152.5t-142.5 -56.5q-63 0 -102 20.5t-66 47t-51.5 48t-57.5 21.5q-61 0 -61 -71v-56h-145z" />
<glyph unicode="&#x2000;" horiz-adv-x="1022" />
<glyph unicode="&#x2001;" horiz-adv-x="2044" />
<glyph unicode="&#x2002;" horiz-adv-x="1022" />
<glyph unicode="&#x2003;" horiz-adv-x="2044" />
<glyph unicode="&#x2004;" horiz-adv-x="681" />
<glyph unicode="&#x2005;" horiz-adv-x="511" />
<glyph unicode="&#x2006;" horiz-adv-x="340" />
<glyph unicode="&#x2007;" horiz-adv-x="340" />
<glyph unicode="&#x2008;" horiz-adv-x="255" />
<glyph unicode="&#x2009;" horiz-adv-x="408" />
<glyph unicode="&#x200a;" horiz-adv-x="113" />
<glyph unicode="&#x2010;" d="M287 575v201h655v-201h-655z" />
<glyph unicode="&#x2011;" d="M287 575v201h655v-201h-655z" />
<glyph unicode="&#x2012;" d="M287 575v201h655v-201h-655z" />
<glyph unicode="&#x2013;" d="M162 575v201h907v-201h-907z" />
<glyph unicode="&#x2014;" d="M0 575v201h1229v-201h-1229z" />
<glyph unicode="&#x2018;" d="M416 1085q0 43 14 100.5t37 106.5l90 203h236l-113 -252q-39 -86 -39 -158q0 -59 29.5 -117.5t81.5 -97.5h-238q-47 39 -72.5 98.5t-25.5 116.5z" />
<glyph unicode="&#x2019;" d="M436 870l115 252q39 86 39 158q0 59 -31 117.5t-82 97.5h238q47 -39 73.5 -98.5t26.5 -116.5q0 -43 -15.5 -100.5t-35.5 -106.5l-92 -203h-236z" />
<glyph unicode="&#x201a;" d="M436 -328l115 252q39 86 39 158q0 59 -31 117.5t-82 97.5h238q47 -39 73.5 -98.5t26.5 -116.5q0 -43 -15.5 -100.5t-35.5 -106.5l-92 -203h-236z" />
<glyph unicode="&#x201c;" d="M195 1085q0 43 14 100.5t37 106.5l90 203h235l-112 -252q-39 -86 -39 -158q0 -59 29.5 -117.5t80.5 -97.5h-237q-47 39 -72.5 98.5t-25.5 116.5zM653 1085q0 43 14.5 100.5t37.5 106.5l90 203h235l-112 -252q-39 -86 -39 -158q0 -59 29.5 -117.5t80.5 -97.5h-237 q-47 39 -73 98.5t-26 116.5z" />
<glyph unicode="&#x201d;" d="M192 882l115 252q39 86 39 158q0 59 -31 117.5t-82 97.5h238q47 -39 73.5 -98.5t26.5 -116.5q0 -43 -15.5 -100.5t-35.5 -106.5l-92 -203h-236zM657 882l115 252q39 86 39 158q0 59 -31 117.5t-82 97.5h238q47 -39 73.5 -98.5t26.5 -116.5q0 -43 -15.5 -100.5 t-35.5 -106.5l-92 -203h-236z" />
<glyph unicode="&#x201e;" d="M192 -328l115 252q39 86 39 158q0 59 -31 117.5t-82 97.5h238q47 -39 73.5 -98.5t26.5 -116.5q0 -43 -15.5 -100.5t-35.5 -106.5l-92 -203h-236zM694 -328l115 252q39 86 39 158q0 59 -31 117.5t-82 97.5h238q47 -39 73.5 -98.5t26.5 -116.5q0 -43 -15.5 -100.5 t-35.5 -106.5l-92 -203h-236z" />
<glyph unicode="&#x2022;" d="M360 748q0 113 71 184.5t183 71.5q113 0 184.5 -72t71.5 -184q0 -113 -71.5 -183.5t-184.5 -70.5t-183.5 70.5t-70.5 183.5z" />
<glyph unicode="&#x2026;" d="M115 98v138q0 53 29.5 85.5t80.5 32.5q49 0 81 -32.5t32 -85.5v-138q0 -53 -32 -85.5t-81 -32.5q-51 0 -80.5 32.5t-29.5 85.5zM504 98v138q0 53 29.5 85.5t80.5 32.5q49 0 81 -32.5t32 -85.5v-138q0 -53 -32 -85.5t-81 -32.5q-51 0 -80.5 32.5t-29.5 85.5zM893 98v138 q0 53 29.5 85.5t81.5 32.5q49 0 80.5 -32.5t31.5 -85.5v-138q0 -53 -31.5 -85.5t-80.5 -32.5q-51 0 -81 32.5t-30 85.5z" />
<glyph unicode="&#x202f;" horiz-adv-x="408" />
<glyph unicode="&#x2039;" d="M293 573l397 492h240l-398 -487l404 -496h-246z" />
<glyph unicode="&#x203a;" d="M293 1065h246l397 -492l-397 -491h-238l397 487z" />
<glyph unicode="&#x205f;" horiz-adv-x="511" />
<glyph unicode="&#x20ac;" d="M33 489v152h139v193h-139v151h139v94q0 203 124 320t335 117q209 0 332.5 -118t123.5 -319h-221q0 117 -62.5 178.5t-172.5 61.5q-113 0 -175.5 -61.5t-62.5 -178.5v-94h340v-151h-340v-193h340v-152h-340v-73q0 -117 62.5 -178.5t175.5 -61.5q111 0 173 61.5t62 178.5 h221q0 -201 -123.5 -318.5t-332.5 -117.5q-211 0 -335 117.5t-124 318.5v73h-139z" />
<glyph unicode="&#x2122;" d="M31 1384v111h536v-111h-205v-626h-129v626h-202zM631 758v737h168l67 -209q10 -29 19.5 -73t13.5 -72q4 29 12.5 72.5t16.5 72.5l65 209h164v-737h-119v411q0 57 6.5 135t12.5 130q-10 -41 -25.5 -97.5t-23.5 -85.5l-56 -192h-110l-62 194q-10 29 -24.5 83.5t-26.5 95.5 q6 -49 13.5 -125t7.5 -133v-416h-119z" />
<glyph unicode="&#x25fc;" horiz-adv-x="1126" d="M0 0v1126h1126v-1126h-1126z" />
</font>
</defs>
</svg>
