<?xml version="1.0" standalone="no"?>
<!DOCTYPE svg PUBLIC "-//W3C//DTD SVG 1.1//EN" "http://www.w3.org/Graphics/SVG/1.1/DTD/svg11.dtd" >
<svg xmlns="http://www.w3.org/2000/svg" xmlns:xlink="http://www.w3.org/1999/xlink" version="1.1">
<metadata></metadata>
<defs>
<font id="soraextrabold" horiz-adv-x="1769" >
<font-face units-per-em="2048" ascent="1638" descent="-410" />
<missing-glyph horiz-adv-x="417" />
<glyph unicode="&#xfb01;" horiz-adv-x="1433" d="M33 848v270h123v21q0 393 454 393h107v-275h-115q-102 0 -102 -102v-37h217v-270h-217v-848h-344v848h-123zM799 860v270h495v-1130h-372v860h-123zM877 1407q0 82 48 134t148 52q102 0 149.5 -52t47.5 -134t-47.5 -134t-149.5 -52q-100 0 -148 52t-48 134z" />
<glyph unicode="&#xfb02;" horiz-adv-x="1417" d="M33 823v271h123v8q0 393 454 393h101v-270h-109q-102 0 -102 -103v-28h219v-271h-219v-823h-344v823h-123zM793 1225v270h485v-1495h-373v1225h-112z" />
<glyph horiz-adv-x="0" />
<glyph horiz-adv-x="682" />
<glyph horiz-adv-x="1228" />
<glyph horiz-adv-x="1228" />
<glyph unicode="&#xd;" horiz-adv-x="1228" />
<glyph unicode=" "  horiz-adv-x="417" />
<glyph unicode="&#x09;" horiz-adv-x="417" />
<glyph unicode="&#xa0;" horiz-adv-x="417" />
<glyph unicode="!" horiz-adv-x="663" d="M115 0v356h434v-356h-434zM141 524v971h381v-971h-381z" />
<glyph unicode="&#x22;" horiz-adv-x="1056" d="M106 836v659h340v-659h-340zM610 836v659h340v-659h-340z" />
<glyph unicode="#" horiz-adv-x="1499" d="M66 362v242h253l43 287h-215v242h254l56 362h286l-55 -362h246l55 362h287l-55 -362h213v-242h-252l-43 -287h213v-242h-252l-56 -362h-286l55 362h-246l-55 -362h-287l56 362h-215zM606 604h246l43 287h-246z" />
<glyph unicode="$" horiz-adv-x="1331" d="M53 467h340q0 -84 69.5 -136t211.5 -52q123 0 193.5 39.5t70.5 115.5q0 63 -58.5 103.5t-193.5 52.5l-94 8q-225 20 -358.5 136t-133.5 327q0 186 104.5 292.5t297.5 133.5v207h299v-211q197 -35 297 -154t100 -305h-340q0 78 -58.5 129t-160.5 51q-94 0 -146.5 -38 t-52.5 -105q0 -55 42 -101.5t143 -56.5l94 -8q254 -20 406.5 -134t152.5 -327q0 -190 -121 -302t-348 -138v-258h-299v262q-229 33 -343 155.5t-114 313.5z" />
<glyph unicode="%" horiz-adv-x="1851" d="M31 1073v53q0 180 96 293t276 113t276.5 -112.5t96.5 -293.5v-53q0 -113 -42 -205t-124 -146t-207 -54q-123 0 -205.5 54t-124.5 146.5t-42 204.5zM301 1100q0 -106 25.5 -146.5t76.5 -40.5q53 0 78 39t25 146q0 115 -25.5 151.5t-77.5 36.5q-51 0 -76.5 -37t-25.5 -149z M504 0l536 1495h316l-537 -1495h-315zM1075 365v53q0 180 96.5 292.5t276.5 112.5t276.5 -112.5t96.5 -292.5v-53q0 -113 -42 -205t-124 -146.5t-207 -54.5q-123 0 -206 54.5t-125 146.5t-42 205zM1346 391q0 -106 25.5 -146t76.5 -40q53 0 77.5 39t24.5 145 q0 115 -25.5 152t-76.5 37t-76.5 -37t-25.5 -150z" />
<glyph unicode="&#x26;" horiz-adv-x="1525" d="M41 459v26q0 137 72.5 249t193.5 175q-35 84 -35 187q0 123 56.5 217t175.5 148.5t307 54.5q78 0 154.5 -7.5t134.5 -17.5v-303q-41 6 -98.5 12t-114 9t-92.5 3q-113 0 -148 -36.5t-35 -100.5q0 -63 32 -124.5t104 -141.5l256 -279q23 55 36 123t17 150h-178v266h598 v-266h-97q-6 -158 -47 -286t-106 -228l266 -289h-408l-71 78q-92 -61 -197.5 -92t-214.5 -31q-168 0 -294 66.5t-196.5 181t-70.5 256.5zM381 498q0 -100 57.5 -170t188.5 -70q98 0 182 43l-279 301q-49 55 -86 96q-27 -37 -45 -87t-18 -113z" />
<glyph unicode="'" horiz-adv-x="552" d="M106 836v659h340v-659h-340z" />
<glyph unicode="(" horiz-adv-x="815" d="M82 621q0 227 40 401t111.5 312.5t163.5 254.5h410q-96 -133 -178 -281.5t-130 -318.5t-48 -368q0 -295 80.5 -539t275.5 -455h-422q-92 125 -160.5 268.5t-105.5 321.5t-37 404z" />
<glyph unicode=")" horiz-adv-x="815" d="M8 -373h422q92 125 160.5 268.5t105.5 321.5t37 404q0 227 -40 401t-111.5 312.5t-163.5 254.5h-410q96 -133 178 -281.5t130 -318.5t48 -368q0 -295 -80.5 -539t-275.5 -455z" />
<glyph unicode="*" horiz-adv-x="1169" d="M72 920l352 153l213 -123l43 -383l-270 4l36 258l-30 19l-205 -162zM72 1255l137 234l207 -162l30 19l-38 258l272 4l-43 -383l-213 -123zM655 965v245l310 230l133 -238l-244 -96v-37l244 -96l-133 -238z" />
<glyph unicode="+" horiz-adv-x="1224" d="M90 553v303h356v373h332v-373h357v-303h-357v-373h-332v373h-356z" />
<glyph unicode="," horiz-adv-x="565" d="M0 -250l225 660l316 -115l-256 -655z" />
<glyph unicode="-" horiz-adv-x="1044" d="M74 416v332h897v-332h-897z" />
<glyph unicode="." horiz-adv-x="565" d="M82 0v406h401v-406h-401z" />
<glyph unicode="/" horiz-adv-x="876" d="M33 -123l426 1720h385l-426 -1720h-385z" />
<glyph unicode="0" horiz-adv-x="1574" d="M106 688v119q0 205 74 370.5t225.5 264t382.5 98.5t382 -98.5t224.5 -264t73.5 -370.5v-119q0 -145 -38.5 -277t-119.5 -233.5t-210.5 -160t-311.5 -58.5t-311 58.5t-211 160t-121 233.5t-39 277zM487 750q0 -223 74.5 -331t226.5 -108t225.5 106.5t73.5 327.5 q0 236 -75.5 339.5t-223.5 103.5q-150 0 -225.5 -103.5t-75.5 -334.5z" />
<glyph unicode="1" horiz-adv-x="880" d="M61 1163v332h660v-1495h-381v1163h-279z" />
<glyph unicode="2" horiz-adv-x="1302" d="M90 1032q0 147 63.5 262t187.5 180.5t306 65.5q180 0 304 -62.5t188.5 -170t64.5 -242.5v-25q0 -174 -94 -286.5t-303 -202.5l-227 -96q-49 -20 -73 -45t-24 -66v-16h717v-328h-1089v328q0 147 77.5 242.5t251.5 168.5l228 97q88 37 128 88t40 129q0 72 -48.5 122 t-140.5 50q-94 0 -141 -52.5t-47 -140.5h-369z" />
<glyph unicode="3" horiz-adv-x="1306" d="M61 455h369q0 -80 55.5 -130.5t155.5 -50.5q102 0 156.5 55.5t54.5 139.5t-54.5 139.5t-156.5 55.5q-59 0 -105.5 -18.5t-78.5 -47.5l-170 283l413 254l-18 32h-557v328h1040v-326l-405 -245q213 -27 337 -146t124 -309v-25q0 -141 -71 -250.5t-201 -172t-308 -62.5 q-176 0 -307 64.5t-202 176t-71 255.5z" />
<glyph unicode="4" horiz-adv-x="1396" d="M57 264v387l549 889l301 -190l-452 -738l30 -45h357v516h352v-516h162v-303h-162v-264h-352v264h-785z" />
<glyph unicode="5" horiz-adv-x="1333" d="M86 475h369q0 -94 63.5 -147.5t159.5 -53.5q109 0 167 67t58 169q0 100 -56 167.5t-165 67.5q-72 0 -125 -31.5t-78 -78.5h-358l76 860h948v-328h-662l-22 -241q53 41 122.5 65.5t170.5 24.5q160 0 275.5 -64.5t179 -176t63.5 -255.5v-24q0 -143 -69.5 -265t-202.5 -197 t-326 -75q-180 0 -312.5 68.5t-204 185.5t-71.5 262z" />
<glyph unicode="6" horiz-adv-x="1425" d="M98 670v82q0 379 194.5 567t577.5 188q158 0 306 -16v-320q-68 6 -152 11.5t-166 5.5q-209 0 -298 -85t-105 -261q63 84 162.5 127t226.5 43q158 0 273.5 -62.5t179 -175t63.5 -268.5q0 -168 -79 -292t-218.5 -191.5t-321.5 -67.5q-221 0 -363 95t-211 257t-69 363z M467 498q0 -100 68.5 -164t193.5 -64q123 0 192.5 62.5t69.5 165.5q0 102 -68.5 164.5t-187.5 62.5q-106 0 -187 -56.5t-81 -170.5z" />
<glyph unicode="7" horiz-adv-x="1265" d="M57 942v553h1176v-205l-535 -1290h-405l487 1149l-26 35h-389v-242h-308z" />
<glyph unicode="8" horiz-adv-x="1386" d="M78 414q0 143 65.5 237t178.5 133v29q-88 35 -144.5 111.5t-56.5 201.5q0 141 73.5 232.5t203.5 136.5t294 45q166 0 295 -45t203 -136t74 -233q0 -125 -55.5 -201.5t-145.5 -111.5v-29q115 -39 180.5 -133t65.5 -237q0 -225 -168 -342t-449 -117q-186 0 -324.5 52 t-214 154.5t-75.5 252.5zM446 463q0 -100 68.5 -148.5t177.5 -48.5t178.5 48t69.5 149q0 98 -68.5 146t-179.5 48q-109 0 -177.5 -48t-68.5 -146zM489 1083q0 -70 54.5 -108.5t148.5 -38.5q96 0 149.5 39t53.5 108q0 72 -53.5 109t-149.5 37t-149.5 -38t-53.5 -108z" />
<glyph unicode="9" horiz-adv-x="1425" d="M65 989q0 168 79 292t218.5 191.5t321.5 67.5q221 0 363 -95t211 -257t69 -363v-82q0 -379 -194.5 -567t-577.5 -188q-158 0 -306 16v320q68 -6 152 -11.5t166 -5.5q209 0 298 85t105 261q-63 -84 -162.5 -127t-226.5 -43q-158 0 -273.5 62.5t-179 175t-63.5 268.5z M434 997q0 -102 68.5 -164.5t187.5 -62.5q106 0 187 56.5t81 170.5q0 100 -68.5 164t-193.5 64q-123 0 -192.5 -62.5t-69.5 -165.5z" />
<glyph unicode=":" horiz-adv-x="565" d="M82 0v406h401v-406h-401zM82 655v406h401v-406h-401z" />
<glyph unicode=";" horiz-adv-x="565" d="M0 -250l225 660l316 -115l-256 -655zM94 655v406h401v-406h-401z" />
<glyph unicode="&#x3c;" horiz-adv-x="1224" d="M140 432v479l946 297v-316l-680 -202v-29l680 -203v-323z" />
<glyph unicode="=" horiz-adv-x="1208" d="M90 291v303h1028v-303h-1028zM90 758v303h1028v-303h-1028z" />
<glyph unicode="&#x3e;" horiz-adv-x="1224" d="M139 135v316l680 202v29l-680 203v323l946 -297v-479z" />
<glyph unicode="?" horiz-adv-x="1159" d="M45 1047q0 141 63.5 252.5t185.5 176t292 64.5q160 0 275.5 -58.5t178 -161.5t62.5 -243v-24q0 -170 -100.5 -283t-284.5 -154l-2 -96h-369v348h207q98 0 145 51.5t47 127.5t-44 125t-128 49q-82 0 -127 -51.5t-45 -122.5h-356zM322 0v356h417v-356h-417z" />
<glyph unicode="@" horiz-adv-x="2312" d="M90 514q0 311 132 540.5t375 355.5t574 126q213 0 399.5 -60.5t329 -179t223.5 -292t81 -400.5q0 -178 -54.5 -316t-160 -217t-260.5 -79q-127 0 -214.5 60.5t-119.5 166.5q-100 -215 -351 -215q-129 0 -232 60.5t-163.5 172t-60.5 261.5v32q0 152 57 259.5t156.5 166 t226.5 58.5q139 0 237.5 -71t143.5 -193v223h258v-598q0 -55 20.5 -86t67.5 -31q84 0 125 90t41 248q0 178 -59.5 305t-164 209t-239.5 121t-284 39q-250 0 -430.5 -89t-275.5 -258t-95 -409q0 -236 101 -403.5t279.5 -257t407.5 -89.5q68 0 145.5 8.5t141.5 20.5v-272 q-61 -12 -140 -19.5t-147 -7.5q-229 0 -424.5 70.5t-341 203t-225.5 322t-80 424.5zM899 514q0 -102 55.5 -173t157.5 -71q90 0 150.5 60.5t60.5 169.5v37q0 98 -60.5 154.5t-150.5 56.5q-100 0 -156.5 -66t-56.5 -168z" />
<glyph unicode="A" horiz-adv-x="1617" d="M16 0l480 1495h610l496 -1495h-394l-108 346h-596l-107 -346h-381zM598 657h403l-165 531h-76z" />
<glyph unicode="B" horiz-adv-x="1425" d="M152 -12v1519h585q262 0 405.5 -109.5t143.5 -312.5v-30q0 -98 -36 -168t-99 -115q92 -45 144.5 -125t52.5 -201v-28q0 -205 -142.5 -317.5t-408.5 -112.5h-645zM520 279h289q166 0 166 167q0 166 -166 166h-289v-333zM520 895h234q84 0 121.5 42t37.5 118 q0 78 -37.5 120t-121.5 42h-234v-322z" />
<glyph unicode="C" horiz-adv-x="1642" d="M78 729v45q0 141 46 277.5t141 247t238.5 176t336.5 65.5q205 0 363.5 -77t254.5 -215t113 -320h-381q-20 115 -114.5 185.5t-235.5 70.5q-178 0 -277.5 -117t-99.5 -317q0 -201 102.5 -318t284.5 -117q143 0 242.5 70t119.5 186h381q-18 -168 -112.5 -307t-254 -222 t-376.5 -83q-203 0 -348.5 70.5t-239.5 186.5t-139 251t-45 262z" />
<glyph unicode="D" horiz-adv-x="1593" d="M152 -8v1515h569q203 0 355.5 -57t255 -158.5t153.5 -234.5t51 -283v-45q0 -137 -51 -269t-153.5 -237.5t-255 -168t-355.5 -62.5h-569zM532 348h205q195 0 304.5 108.5t109.5 295.5q0 197 -109.5 298t-304.5 101h-205v-803z" />
<glyph unicode="E" horiz-adv-x="1212" d="M152 0v1495h946v-311h-578v-269h547v-311h-547v-293h590v-311h-958z" />
<glyph unicode="F" horiz-adv-x="1146" d="M152 0v1495h917v-311h-537v-293h515v-311h-515v-580h-380z" />
<glyph unicode="G" horiz-adv-x="1705" d="M78 729v45q0 139 47 275.5t142 247t238.5 177t336.5 66.5q207 0 365.5 -75.5t255 -210t112.5 -310.5h-381q-18 102 -112.5 171t-239.5 69q-123 0 -207 -56.5t-128 -153.5t-44 -224t47 -227.5t138 -158t226 -57.5q109 0 191 39t129 105v77h-360v267h831v-267h-123v-233 q-94 -162 -267.5 -249t-400.5 -87q-211 0 -362.5 70.5t-247.5 185.5t-141 250t-45 264z" />
<glyph unicode="H" horiz-adv-x="1634" d="M152 0v1495h380v-575h570v575h381v-1495h-381v588h-570v-588h-380z" />
<glyph unicode="I" horiz-adv-x="692" d="M156 0v1495h381v-1495h-381z" />
<glyph unicode="J" horiz-adv-x="1318" d="M66 514v82h376v-94q0 -82 48.5 -134.5t136.5 -52.5t136 52.5t48 134.5v661h-578v332h959v-981q0 -264 -147.5 -409.5t-415.5 -145.5q-266 0 -414.5 145.5t-148.5 409.5z" />
<glyph unicode="K" horiz-adv-x="1591" d="M152 0v1495h380v-700l531 700h438l-487 -643l592 -852h-459l-485 698h-130v-698h-380z" />
<glyph unicode="L" horiz-adv-x="1150" d="M152 0v1495h380v-1163h566v-332h-946z" />
<glyph unicode="M" horiz-adv-x="2023" d="M152 0v1495h528l307 -788h41l305 788h539v-1495h-377v1122l-326 -821h-346l-323 811v-1112h-348z" />
<glyph unicode="N" horiz-adv-x="1812" d="M152 0v1495h624l498 -1192h31v1192h356v-1495h-629l-497 1192h-31v-1192h-352z" />
<glyph unicode="O" d="M78 729v45q0 141 51 277.5t153.5 247t253 176t349.5 65.5q197 0 347 -65.5t252.5 -176t155 -247t52.5 -277.5v-45q0 -127 -50.5 -262t-150.5 -251t-251.5 -186.5t-354.5 -70.5q-205 0 -356.5 70.5t-252 186.5t-149.5 251t-49 262zM463 750q0 -123 51 -221.5t145.5 -156 t225.5 -57.5t225 57.5t145.5 156t51.5 221.5q0 131 -51.5 228t-146.5 151.5t-224 54.5q-195 0 -308.5 -120t-113.5 -314z" />
<glyph unicode="P" horiz-adv-x="1384" d="M152 0v1507h575q193 0 333 -64.5t216 -185t76 -288.5v-33q0 -166 -76 -287t-216 -186.5t-333 -65.5h-195v-397h-380zM532 725h205q104 0 167 60.5t63 166.5q0 109 -63 168.5t-167 59.5h-205v-455z" />
<glyph unicode="Q" d="M78 729v45q0 141 51 277.5t153.5 247t253 176t349.5 65.5q197 0 347 -65.5t252.5 -176t155 -247t52.5 -277.5v-45q0 -113 -40 -233.5t-119 -228t-199 -185.5t-281 -109v-22q0 -57 31.5 -86t89.5 -29h212v-287h-204q-147 0 -256 33t-169.5 121t-60.5 256v18 q-156 33 -272.5 112t-193 185.5t-114.5 224t-38 230.5zM463 750q0 -123 51 -221.5t145.5 -156t225.5 -57.5t225 57.5t145.5 156t51.5 221.5q0 131 -51.5 228t-146.5 151.5t-224 54.5q-195 0 -308.5 -120t-113.5 -314z" />
<glyph unicode="R" horiz-adv-x="1515" d="M152 0v1507h620q293 0 461 -130t168 -382v-32q0 -162 -72 -272.5t-205 -168.5l367 -522h-438l-303 459h-218v-459h-380zM532 752h263q100 0 160.5 58t60.5 159q0 100 -60.5 159.5t-160.5 59.5h-263v-436z" />
<glyph unicode="S" horiz-adv-x="1349" d="M45 465h369q0 -82 66.5 -136.5t203.5 -54.5q119 0 185.5 45.5t66.5 120.5q0 66 -55.5 102t-186.5 46l-96 8q-231 20 -368.5 145t-137.5 332q0 219 151.5 343t405.5 124q184 0 312.5 -61.5t196 -173t67.5 -258.5h-369q0 74 -54 126t-153 52q-94 0 -141 -43t-47 -109 q0 -57 39 -98t135 -49l96 -8q168 -14 297 -73t203 -159t74 -246q0 -145 -75 -253.5t-213 -168t-333 -59.5q-209 0 -351.5 65.5t-215 179t-72.5 261.5z" />
<glyph unicode="T" horiz-adv-x="1282" d="M41 1163v332h1200v-332h-410v-1163h-380v1163h-410z" />
<glyph unicode="U" horiz-adv-x="1579" d="M123 612v883h381v-891q0 -133 74.5 -211t212.5 -78q137 0 210.5 77t73.5 212v891h381v-883q0 -301 -170.5 -477t-494.5 -176q-215 0 -363.5 80t-226.5 226.5t-78 346.5z" />
<glyph unicode="V" horiz-adv-x="1536" d="M41 1495h393l316 -1192h69l295 1192h381l-405 -1495h-615z" />
<glyph unicode="W" horiz-adv-x="2211" d="M37 1495h393l258 -1192h49l195 1139h375l227 -1139h49l223 1192h369l-313 -1495h-580l-166 797l-155 -797h-568z" />
<glyph unicode="X" horiz-adv-x="1495" d="M12 0l488 782l-447 713h418l256 -432h53l248 432h406l-449 -725l498 -770h-418l-305 494h-53l-289 -494h-406z" />
<glyph unicode="Y" horiz-adv-x="1347" d="M8 1495h389l277 -647h51l246 647h368l-387 -934h-73v-561h-373v561h-74z" />
<glyph unicode="Z" horiz-adv-x="1320" d="M61 0v254l719 905l-18 25h-672v311h1174v-254l-721 -905l18 -25h694v-311h-1194z" />
<glyph unicode="[" horiz-adv-x="815" d="M160 -373v1962h577v-311h-221v-1339h221v-312h-577z" />
<glyph unicode="\" horiz-adv-x="876" d="M25 1597h381l446 -1720h-381z" />
<glyph unicode="]" horiz-adv-x="815" d="M78 -61v-312h577v1962h-577v-311h221v-1339h-221z" />
<glyph unicode="^" horiz-adv-x="1294" d="M90 637l330 885h454l330 -885h-315l-211 618h-51l-213 -618h-324z" />
<glyph unicode="_" horiz-adv-x="1216" d="M0 -98h1217v-279h-1217v279z" />
<glyph unicode="`" horiz-adv-x="614" d="M0 1688h389l180 -435h-336z" />
<glyph unicode="a" horiz-adv-x="1228" d="M53 332q0 127 67.5 205.5t186.5 115.5t273 37h178q-2 78 -38 114t-116 36q-39 0 -114.5 -2t-159.5 -6.5t-154 -8.5v312q49 4 116.5 8t140.5 6t134 2q262 0 404.5 -114.5t142.5 -350.5v-686h-295v209q-37 -115 -127 -176.5t-231 -61.5q-180 0 -294 95.5t-114 265.5z M422 358q0 -61 41 -99t117 -38q72 0 122 42t56 155v80h-178q-76 0 -117 -38t-41 -102z" />
<glyph unicode="b" horiz-adv-x="1449" d="M135 0v1495h373v-537q121 205 375 205q154 0 265.5 -73.5t171.5 -202.5t60 -295v-49q0 -166 -62.5 -297t-177 -207t-276.5 -76q-160 0 -272.5 76t-161.5 221v-260h-295zM500 522q0 -80 39 -136t98.5 -86t120.5 -30q111 0 180.5 83t69.5 214t-69 210t-181 79 q-68 0 -126.5 -30.5t-95 -90t-36.5 -143.5v-70z" />
<glyph unicode="c" horiz-adv-x="1255" d="M70 541v41q0 158 66.5 292t196.5 215.5t318 81.5q156 0 274.5 -61t189.5 -168.5t79 -247.5h-365q-6 68 -50 115t-128 47q-106 0 -157.5 -81t-51.5 -214q0 -127 46.5 -207t162.5 -80q86 0 132 45.5t55 122.5h364q-8 -143 -80.5 -251.5t-193.5 -170t-277 -61.5 q-147 0 -255.5 48t-181.5 130t-108.5 186.5t-35.5 217.5z" />
<glyph unicode="d" horiz-adv-x="1449" d="M70 535v49q0 166 63.5 297t179 206.5t275.5 75.5q240 0 354 -180v512h373v-1495h-295v240q-51 -131 -158.5 -204t-261.5 -73q-158 0 -277.5 74t-186 204t-66.5 294zM442 559q0 -131 72.5 -210t185.5 -79q102 0 176 69t74 196v69q0 82 -35.5 137.5t-92 85t-122.5 29.5 q-113 0 -185.5 -82t-72.5 -215z" />
<glyph unicode="e" horiz-adv-x="1286" d="M70 545v41q0 115 40 220t114.5 187t183 130t245.5 48q182 0 309.5 -81.5t195 -216t67.5 -291.5v-119h-803q18 -96 77.5 -150.5t166.5 -54.5q156 0 198 98h340q-25 -115 -97.5 -205t-184 -141t-256.5 -51q-143 0 -254 49t-186.5 133t-115.5 188.5t-40 215.5zM422 664h452 q-35 208 -221 208q-92 0 -152.5 -52t-78.5 -156z" />
<glyph unicode="f" horiz-adv-x="784" d="M33 836v270h127v20q0 393 454 394h146v-275h-154q-102 0 -102 -102v-37h272v-270h-272v-836h-344v836h-127z" />
<glyph unicode="g" horiz-adv-x="1413" d="M70 549v49q0 162 65.5 290t182 201.5t272.5 73.5q147 0 251.5 -71.5t153.5 -208.5v247h295v-997q0 -315 -176 -450.5t-526 -135.5q-84 0 -173 6.5t-161 16.5v311q72 -8 160 -15t161 -7q188 0 277.5 60.5t89.5 189.5v98q-51 -102 -146.5 -158.5t-228.5 -56.5 q-154 0 -265.5 71.5t-171.5 197.5t-60 288zM442 573q0 -129 69.5 -201.5t180.5 -72.5q100 0 171 67.5t71 192.5v49q0 119 -73 183.5t-169 64.5q-111 0 -180.5 -77t-69.5 -206z" />
<glyph unicode="h" horiz-adv-x="1343" d="M135 0v1495h373v-547q88 219 326 219h16q184 0 281.5 -133t97.5 -391v-643h-373v657q0 78 -47 128.5t-125 50.5t-127 -50.5t-49 -132.5v-653h-373z" />
<glyph unicode="i" horiz-adv-x="700" d="M45 860v270h516v-1130h-373v860h-143zM143 1407q0 82 48.5 134t148.5 52q102 0 149.5 -52t47.5 -134t-47.5 -134t-149.5 -52q-100 0 -148.5 52t-48.5 134z" />
<glyph unicode="j" horiz-adv-x="708" d="M12 -111h58q152 0 151 152v819h-151v270h512v-1085q0 -254 -125 -360.5t-396 -106.5h-49v311zM164 1407q0 82 48 134t148 52q102 0 149.5 -52t47.5 -134t-47.5 -134t-149.5 -52q-100 0 -148 52t-48 134z" />
<glyph unicode="k" horiz-adv-x="1353" d="M135 0v1495h373v-891l387 526h389l-356 -483l426 -647h-416l-334 528h-96v-528h-373z" />
<glyph unicode="l" horiz-adv-x="663" d="M25 1225v270h499v-1495h-372v1225h-127z" />
<glyph unicode="m" horiz-adv-x="2023" d="M135 0v1130h295v-294q63 331 367 331h2h16q256 0 342 -235q86 235 340 235h2h17q188 0 290.5 -131t102.5 -393v-643h-373v653q0 78 -42 130.5t-120 52.5t-122 -52.5t-44 -134.5v-649h-372v653q0 78 -42 130.5t-120 52.5t-122 -52.5t-44 -134.5v-649h-373z" />
<glyph unicode="n" horiz-adv-x="1343" d="M135 0v1130h295v-296q33 168 129 250.5t250 82.5h16q193 0 298.5 -128t105.5 -392v-647h-373v657q0 78 -46 128.5t-126 50.5t-128 -50.5t-48 -132.5v-653h-373z" />
<glyph unicode="o" horiz-adv-x="1396" d="M70 537v49q0 166 76.5 298t218 209.5t333.5 77.5q193 0 334.5 -77.5t218 -209.5t76.5 -298v-49q0 -158 -73.5 -289t-214 -210t-341.5 -79q-199 0 -340 79t-214.5 210t-73.5 289zM442 561q0 -127 64.5 -209t191.5 -82t191.5 82t64.5 209q0 131 -66.5 215t-189.5 84 t-189.5 -84t-66.5 -215z" />
<glyph unicode="p" horiz-adv-x="1449" d="M135 -410v1540h295v-288q49 156 164 238.5t274 82.5q156 0 270.5 -73.5t178 -202.5t63.5 -295v-49q0 -166 -58 -297t-172 -207t-280 -76q-117 0 -210 41t-152 125v-539h-373zM500 522q0 -80 39 -136t98.5 -86t120.5 -30q111 0 180.5 83t69.5 214t-69 210t-181 79 q-68 0 -126.5 -30.5t-95 -90t-36.5 -143.5v-70z" />
<glyph unicode="q" horiz-adv-x="1449" d="M70 535v49q0 166 66.5 297t186 206.5t277.5 75.5q156 0 264.5 -78.5t155.5 -224.5v270h295v-1540h-373v543q-57 -80 -146 -125t-210 -45q-158 0 -273.5 74t-179 204t-63.5 294zM442 559q0 -131 72.5 -210t185.5 -79q102 0 176 69t74 196v69q0 82 -35.5 137.5t-92 85 t-122.5 29.5q-113 0 -185.5 -82t-72.5 -215z" />
<glyph unicode="r" horiz-adv-x="868" d="M135 0v1130h295v-399q18 195 115.5 305.5t265.5 110.5h45v-320h-86q-125 0 -193.5 -67.5t-68.5 -194.5v-565h-373z" />
<glyph unicode="s" horiz-adv-x="1150" d="M45 350h328q8 -51 63.5 -88t155.5 -37q72 0 124 21.5t52 70.5q0 43 -41 71t-149 38l-78 8q-217 23 -319.5 119t-102.5 242q0 125 61.5 205.5t170 121.5t247.5 41q227 0 366.5 -99t147.5 -286h-328q-8 51 -55 87t-135 36q-63 0 -103 -22.5t-40 -63.5q0 -43 37.5 -63.5 t121.5 -30.5l78 -8q217 -23 335 -120t118 -255q0 -174 -138 -274.5t-378 -100.5q-246 0 -387.5 101.5t-151.5 285.5z" />
<glyph unicode="t" horiz-adv-x="892" d="M8 860v270h166v295h344v-295h309v-270h-311v-409q0 -156 156 -156h155v-311h-153q-184 0 -294 45t-159 149.5t-49 282.5v399h-164z" />
<glyph unicode="u" horiz-adv-x="1331" d="M111 475v655h372v-665q0 -76 45 -123t121 -47t123 47t47 127v661h373v-1130h-295v266q-35 -156 -127 -229.5t-240 -73.5h-16q-193 0 -298 126t-105 386z" />
<glyph unicode="v" horiz-adv-x="1247" d="M25 1130h381l219 -819h43l186 819h356l-278 -1130h-584z" />
<glyph unicode="w" horiz-adv-x="1937" d="M29 1130h364l199 -819h43l143 783h389l164 -783h41l180 819h340l-270 -1130h-508l-147 674l-136 -674h-505z" />
<glyph unicode="x" horiz-adv-x="1257" d="M12 0l316 575l-305 555h401l182 -370h33l172 370h377l-285 -552l346 -578h-401l-221 395h-33l-205 -395h-377z" />
<glyph unicode="y" horiz-adv-x="1181" d="M0 1130h373l229 -819h37l182 819h353l-297 -1212q-33 -139 -91.5 -220t-160 -115t-263.5 -34h-219v312h260q72 0 110 27.5t54 101.5l8 35h-245z" />
<glyph unicode="z" horiz-adv-x="1036" d="M61 0v231l488 588l-23 29h-460v282h917v-231l-487 -588l22 -28h477v-283h-934z" />
<glyph unicode="{" horiz-adv-x="815" d="M78 449v327q160 0 160 123v285q0 219 123.5 312t334.5 93h54v-311h-54q-59 0 -82.5 -25.5t-23.5 -72.5v-303q0 -125 -54.5 -181.5t-162.5 -66.5v-33q109 -8 163 -64.5t54 -183.5v-311q0 -47 23.5 -72.5t82.5 -25.5h54v-312h-54q-211 0 -334.5 94.5t-123.5 311.5v293 q0 123 -160 123z" />
<glyph unicode="|" horiz-adv-x="770" d="M229 -410v1905l312 2v-1905z" />
<glyph unicode="}" horiz-adv-x="815" d="M65 -61v-312h54q211 0 334.5 94.5t123.5 311.5v293q0 123 160 123v327q-160 0 -160 123v285q0 219 -123.5 312t-334.5 93h-54v-311h54q59 0 82.5 -25.5t23.5 -72.5v-303q0 -125 54.5 -181.5t162.5 -66.5v-33q-109 -8 -163 -64.5t-54 -183.5v-311q0 -47 -23.5 -72.5 t-82.5 -25.5h-54z" />
<glyph unicode="~" horiz-adv-x="1144" d="M41 465q4 152 52 245t121 136t148 43q74 0 134.5 -26.5t111.5 -60.5t95.5 -60.5t84.5 -26.5q41 0 69 31.5t38 101.5h209q-2 -154 -51 -247t-121 -134t-150 -41q-74 0 -134 26.5t-111.5 60.5t-95.5 60.5t-85 26.5q-39 0 -67.5 -31.5t-38.5 -101.5z" />
<glyph unicode="&#xa1;" horiz-adv-x="663" d="M115 774h434v356h-434v-356zM141 -365h381v971h-381v-971z" />
<glyph unicode="&#xa2;" horiz-adv-x="1249" d="M70 721v41q0 203 113.5 348t318.5 184v181h299v-183q170 -37 271.5 -153.5t111.5 -290.5h-353q-8 66 -57 109.5t-131 43.5q-96 0 -154.5 -68.5t-58.5 -191.5q0 -117 53.5 -184.5t159.5 -67.5q84 0 135 44.5t62 119.5h352q-10 -176 -113.5 -296.5t-277.5 -157.5v-199h-299 v197q-137 27 -234.5 102.5t-147.5 185t-50 236.5z" />
<glyph unicode="&#xa3;" horiz-adv-x="1310" d="M82 0v287h131v352h-119v246h119v104q0 262 165 396.5t441 134.5q45 0 109.5 -3.5t128 -8.5t102.5 -9v-299q-39 4 -104.5 9t-131 8.5t-104.5 3.5q-152 0 -209 -64.5t-57 -181.5v-90h471v-246h-471v-352h414v176h286v-463h-1171z" />
<glyph unicode="&#xa4;" horiz-adv-x="1409" d="M57 328l193 192q-57 98 -57 209v33q0 111 55 207l-191 190l209 213l201 -201q51 25 111.5 38.5t126.5 13.5t126 -13.5t111 -38.5l201 201l209 -213l-191 -190q55 -96 56 -207v-33q0 -111 -58 -209l193 -192l-209 -213l-203 202q-53 -23 -111.5 -36t-123.5 -13 q-66 0 -124.5 13.5t-111.5 35.5l-203 -202zM508 745q0 -88 50.5 -143t146.5 -55t146 55t50 143q0 94 -51 146.5t-145 52.5t-145.5 -52t-51.5 -147z" />
<glyph unicode="&#xa5;" horiz-adv-x="1392" d="M33 1495h385l282 -606h45l250 606h365l-326 -717h260v-176h-405v-135h405v-176h-405v-291h-348v291h-414v176h414v135h-414v176h260z" />
<glyph unicode="&#xa6;" horiz-adv-x="770" d="M229 -410v842h312v-842h-312zM229 653v842h312v-842h-312z" />
<glyph unicode="&#xa7;" horiz-adv-x="1232" d="M51 203h328q8 -59 63.5 -104.5t149.5 -45.5q78 0 120 30t42 75q0 57 -73 89t-175 62q-74 23 -153 51.5t-144.5 70.5t-106.5 104.5t-41 152.5q0 115 59.5 200t145.5 132q-61 43 -100 106.5t-39 153.5q0 109 59.5 195t165 137t242.5 51q225 0 356 -101.5t131 -289.5h-319 q-2 61 -44 96t-126 35q-68 0 -101.5 -30t-33.5 -77q0 -53 73.5 -85.5t174.5 -63.5q78 -25 160.5 -55.5t152 -74.5t113 -109.5t43.5 -162.5q0 -109 -46.5 -189.5t-144.5 -139.5q43 -41 68.5 -96.5t25.5 -133.5q0 -184 -130 -289.5t-359 -105.5q-242 0 -384.5 107.5 t-152.5 304.5zM393 762q0 -53 38 -87t99.5 -58.5t133.5 -47.5q18 -6 35.5 -11t35.5 -11q106 59 107 160q0 45 -37 75.5t-97.5 54t-132.5 46.5q-18 6 -37.5 12t-37.5 12q-57 -29 -82 -68.5t-25 -76.5z" />
<glyph unicode="&#xa8;" horiz-adv-x="614" d="M0 1470q0 80 44 134.5t144 54.5t144.5 -54.5t44.5 -134.5t-44.5 -134t-144.5 -54t-144 54.5t-44 133.5zM451 1470q0 80 44 134.5t144 54.5t144.5 -54.5t44.5 -134.5t-44.5 -134t-144.5 -54t-144 54.5t-44 133.5z" />
<glyph unicode="&#xa9;" horiz-adv-x="1454" d="M82 850v37q0 111 39 222.5t117.5 203.5t200.5 147.5t288 55.5t288 -55.5t200.5 -147.5t117.5 -204t39 -222v-37q0 -106 -38 -218t-115.5 -206t-199.5 -151.5t-292 -57.5q-168 0 -291 57.5t-200.5 151.5t-115.5 205.5t-38 218.5zM205 866q0 -143 63.5 -266t180 -197.5 t278.5 -74.5t278.5 74.5t180 197.5t63.5 266q0 150 -63.5 272t-180 194.5t-278.5 72.5t-278.5 -72.5t-180 -194.5t-63.5 -272zM348 848v26q0 106 44 191.5t130 135.5t207 50q160 0 260.5 -86t108.5 -225h-250q-4 43 -30.5 72.5t-80.5 29.5q-70 0 -100.5 -46t-30.5 -134 q0 -84 28 -130t103 -46q53 0 81 29.5t34 81.5h252q-8 -143 -111.5 -231.5t-263.5 -88.5q-125 0 -210 50.5t-128 135.5t-43 185z" />
<glyph unicode="&#xaa;" horiz-adv-x="919" d="M49 938q0 94 52.5 148.5t141.5 79t199 24.5h74q-8 43 -61 43q-18 0 -72.5 -1t-123.5 -3t-128 -6v274q39 4 93.5 6t110.5 4t97 2q182 0 293 -85t111 -255v-462h-263v137q-25 -76 -83 -117t-156 -41q-125 0 -205 67.5t-80 184.5zM377 965q0 -25 16 -42.5t53 -17.5 t53.5 20.5t18.5 71.5v31h-72q-70 0 -69 -63z" />
<glyph unicode="&#xab;" horiz-adv-x="1404" d="M25 479v103l282 407h426l-295 -416v-77l295 -416h-438zM660 479v103l282 407h426l-295 -416v-77l295 -416h-438z" />
<glyph unicode="&#xac;" horiz-adv-x="1294" d="M90 512v303h1114v-684h-282v381h-832z" />
<glyph unicode="&#xad;" horiz-adv-x="882" d="M66 416v332h751v-332h-751z" />
<glyph unicode="&#xae;" horiz-adv-x="1388" d="M111 924v32q0 104 37.5 204t112.5 181.5t183.5 130t249.5 48.5t250 -48.5t183.5 -130t112.5 -181t38 -204.5v-32q0 -100 -37 -200.5t-110.5 -183.5t-183.5 -133.5t-253 -50.5t-252.5 50.5t-183.5 133.5t-110.5 183t-36.5 201zM225 938q0 -131 58.5 -238.5t164 -172 t246.5 -64.5t247 64.5t164 172t58 238.5q0 135 -58 242.5t-163.5 170t-247.5 62.5q-141 0 -246.5 -62.5t-164 -170t-58.5 -242.5zM436 627v649h264q285 0 285 -236q0 -137 -98 -194l129 -219h-205l-96 178h-15h-75v-178h-189zM625 961h80q51 0 71.5 21.5t20.5 57.5 q0 37 -20.5 58.5t-71.5 21.5h-80v-159z" />
<glyph unicode="&#xaf;" horiz-adv-x="614" d="M0 1315v258h737v-258h-737z" />
<glyph unicode="&#xb0;" horiz-adv-x="905" d="M37 1090q0 113 52 203.5t146.5 146t217.5 55.5q125 0 218 -55.5t145 -146.5t52 -203q0 -113 -52 -205t-145 -147.5t-218 -55.5q-123 0 -217.5 55.5t-146.5 147.5t-52 205zM307 1090q0 -63 39 -106.5t107 -43.5t106.5 43t38.5 107q0 63 -39 105t-106 42q-68 0 -107 -42 t-39 -105z" />
<glyph unicode="&#xb1;" horiz-adv-x="1249" d="M123 31v280h1003v-280h-1003zM123 764v283h346v329h311v-329h346v-283h-346v-330h-311v330h-346z" />
<glyph unicode="&#xb2;" horiz-adv-x="776" d="M61 1425q0 117 78 200t244 83q164 0 244 -79t80 -187v-14q0 -90 -50.5 -155t-183.5 -118l-117 -47q-29 -10 -46 -20.5t-17 -30.5h407v-197h-626v176q0 84 45 141.5t147 98.5l117 47q43 18 67.5 41t24.5 68q0 31 -22.5 52t-69.5 21q-86 0 -86 -80h-236z" />
<glyph unicode="&#xb3;" horiz-adv-x="780" d="M49 1110h236q0 -33 26.5 -52.5t71.5 -19.5q47 0 71.5 24t24.5 58q0 35 -25.5 59.5t-70.5 24.5q-33 0 -57.5 -10t-40.5 -25l-107 181l215 102l-12 23h-295v209h590v-222l-195 -96q111 -20 173.5 -83.5t62.5 -160.5v-14q0 -115 -88 -193.5t-246 -78.5q-156 0 -245 80.5 t-89 193.5z" />
<glyph unicode="&#xb4;" horiz-adv-x="614" d="M0 1253l184 435h381l-237 -435h-328z" />
<glyph unicode="&#xb5;" horiz-adv-x="1400" d="M111 -410v1540h372v-665q0 -76 45 -123t121 -47t123 47t47 127v661h373v-743q0 -68 68 -68h96v-319h-135q-150 0 -232 48t-115 145q-45 -117 -124.5 -173.5t-182.5 -56.5h-12q-68 0 -133 35q10 -41 16 -85t6 -91v-232h-333z" />
<glyph unicode="&#xb6;" horiz-adv-x="1316" d="M16 1110v23q0 168 94.5 269t305.5 101h393v-1503h-240v739h-153q-211 0 -305.5 101.5t-94.5 269.5zM934 0v1503h235v-1503h-235z" />
<glyph unicode="&#xb7;" horiz-adv-x="565" d="M82 385v406h401v-406h-401z" />
<glyph unicode="&#xb8;" horiz-adv-x="614" d="M70 -322q29 -10 69.5 -18t85.5 -8q111 0 111 51q0 18 -17.5 28.5t-60.5 10.5h-117v287h226v-123q100 -16 155.5 -69.5t55.5 -143.5q0 -113 -85 -189.5t-249 -76.5q-51 0 -99.5 9t-74.5 17v225z" />
<glyph unicode="&#xb9;" horiz-adv-x="540" d="M49 1473v211h395v-824h-243v613h-152z" />
<glyph unicode="&#xba;" horiz-adv-x="1005" d="M61 1075v41q0 119 55.5 210t155 143.5t232.5 52.5t232.5 -52.5t153.5 -143.5t54 -210v-41q0 -113 -52 -204t-150.5 -143t-237.5 -52q-137 0 -236.5 52t-153 143.5t-53.5 203.5zM393 1096q0 -70 27 -108t84 -38q55 0 81.5 38t26.5 108q0 68 -27.5 109.5t-80.5 41.5 t-82 -41t-29 -110z" />
<glyph unicode="&#xbb;" horiz-adv-x="1404" d="M37 80l295 416v77l-295 416h438l270 -399v-103l-282 -407h-426zM672 80l295 416v77l-295 416h438l270 -399v-103l-282 -407h-426z" />
<glyph unicode="&#xbc;" d="M49 1135v211h395v-824h-243v613h-152zM250 -45l852 1438h245l-852 -1438h-245zM979 131v252l311 506l185 -113l-256 -424l18 -28h180v276h226v-276h88v-193h-88v-131h-226v131h-438z" />
<glyph unicode="&#xbd;" horiz-adv-x="1789" d="M49 1135v211h395v-824h-243v613h-152zM250 -45l852 1438h245l-852 -1438h-245zM1075 565q0 117 78 200t244 83q164 0 244 -79t80 -187v-14q0 -90 -50.5 -155t-183.5 -118l-117 -47q-29 -10 -46 -20.5t-17 -30.5h407v-197h-626v176q0 84 45 141.5t147 98.5l117 47 q43 18 67.5 41t24.5 68q0 31 -22.5 52t-69.5 21q-86 0 -86 -80h-236z" />
<glyph unicode="&#xbe;" horiz-adv-x="1970" d="M49 772h236q0 -33 26.5 -52.5t71.5 -19.5q47 0 71.5 24t24.5 58q0 35 -25.5 59.5t-70.5 24.5q-33 0 -57.5 -10t-40.5 -25l-107 181l215 102l-12 23h-295v209h590v-222l-195 -96q111 -20 173.5 -83.5t62.5 -160.5v-14q0 -115 -88 -193.5t-246 -78.5q-156 0 -245 80.5 t-89 193.5zM451 -45l852 1438h245l-852 -1438h-245zM1180 131v252l311 506l185 -113l-256 -424l18 -28h180v276h226v-276h88v-193h-88v-131h-226v131h-438z" />
<glyph unicode="&#xbf;" horiz-adv-x="1159" d="M57 53v24q0 170 100.5 283t284.5 154l2 96h369v-348h-207q-98 0 -145 -51.5t-47 -127.5t44 -125t128 -49q82 0 127 51.5t45 122.5h356q0 -141 -63.5 -252.5t-185.5 -176t-292 -64.5q-160 0 -275.5 58.5t-178 161.5t-62.5 243zM420 774v356h417v-356h-417z" />
<glyph unicode="&#xc0;" horiz-adv-x="1617" d="M16 0l480 1495h610l496 -1495h-394l-108 346h-596l-107 -346h-381zM375 1982h397l211 -376h-360zM598 657h403l-165 531h-76z" />
<glyph unicode="&#xc1;" horiz-adv-x="1617" d="M16 0l480 1495h610l496 -1495h-394l-108 346h-596l-107 -346h-381zM598 657h403l-165 531h-76zM606 1606l254 376h393l-291 -376h-356z" />
<glyph unicode="&#xc2;" horiz-adv-x="1617" d="M16 0l480 1495h610l496 -1495h-394l-108 346h-596l-107 -346h-381zM319 1606l266 376h439l270 -376h-340l-135 200h-37l-131 -200h-332zM598 657h403l-165 531h-76z" />
<glyph unicode="&#xc3;" horiz-adv-x="1617" d="M16 0l480 1495h610l496 -1495h-394l-108 346h-596l-107 -346h-381zM365 1876q37 43 97.5 73.5t152.5 30.5q68 0 115 -17t84.5 -39.5t77.5 -40t94 -17.5q72 0 121 25.5t77 58.5l53 -254q-37 -43 -98 -74t-153 -31q-68 0 -115 17.5t-85 40t-78 40t-93 17.5 q-72 0 -120 -24.5t-77 -59.5zM598 657h403l-165 531h-76z" />
<glyph unicode="&#xc4;" horiz-adv-x="1617" d="M16 0l480 1495h610l496 -1495h-394l-108 346h-596l-107 -346h-381zM371 1802q0 82 48 133.5t149 51.5q102 0 149 -51.5t47 -133.5t-47 -133t-149 -51q-100 0 -148.5 51t-48.5 133zM598 657h403l-165 531h-76zM838 1802q0 82 48 133.5t149 51.5q102 0 149 -51.5t47 -133.5 t-47 -133t-149 -51q-100 0 -148.5 51t-48.5 133z" />
<glyph unicode="&#xc5;" horiz-adv-x="1617" d="M16 0l480 1495h610l496 -1495h-394l-108 346h-596l-107 -346h-381zM526 1790q0 106 76 169.5t198 63.5q123 0 199 -63.5t76 -169.5t-76 -170t-199 -64t-198.5 63.5t-75.5 170.5zM598 657h403l-165 531h-76zM723 1790q0 -31 20 -51.5t57 -20.5t57.5 20.5t20.5 51.5 t-20.5 51.5t-57.5 20.5t-57 -20.5t-20 -51.5z" />
<glyph unicode="&#xc6;" horiz-adv-x="2019" d="M-16 0l589 1495h1332v-311h-576v-269h547v-311h-547v-293h588v-311h-950v367h-457l-145 -367h-381zM633 680h334v508h-133z" />
<glyph unicode="&#xc7;" horiz-adv-x="1642" d="M78 729v45q0 141 46 277.5t141 247t238.5 176t336.5 65.5q205 0 363.5 -77t254.5 -215t113 -320h-381q-20 115 -114.5 185.5t-235.5 70.5q-178 0 -277.5 -117t-99.5 -317q0 -201 102.5 -318t284.5 -117q143 0 242.5 70t119.5 186h381q-18 -168 -112.5 -307t-254 -222 t-376.5 -83q-203 0 -348.5 70.5t-239.5 186.5t-139 251t-45 262zM653 -326q31 -10 73 -18t93 -8q117 0 117 51q0 39 -84 39h-119v291h237v-123q100 -18 155.5 -72.5t55.5 -144.5q0 -115 -88 -195t-256 -80q-55 0 -105 8.5t-79 18.5v233z" />
<glyph unicode="&#xc8;" horiz-adv-x="1212" d="M152 0v1495h946v-311h-578v-269h547v-311h-547v-293h590v-311h-958zM197 1982h397l211 -376h-360z" />
<glyph unicode="&#xc9;" horiz-adv-x="1212" d="M152 0v1495h946v-311h-578v-269h547v-311h-547v-293h590v-311h-958zM428 1606l254 376h393l-291 -376h-356z" />
<glyph unicode="&#xca;" horiz-adv-x="1212" d="M141 1606l266 376h439l270 -376h-340l-135 200h-37l-131 -200h-332zM152 0v1495h946v-311h-578v-269h547v-311h-547v-293h590v-311h-958z" />
<glyph unicode="&#xcb;" horiz-adv-x="1212" d="M152 0v1495h946v-311h-578v-269h547v-311h-547v-293h590v-311h-958zM193 1802q0 82 48 133.5t149 51.5q102 0 149 -51.5t47 -133.5t-47 -133t-149 -51q-100 0 -148.5 51t-48.5 133zM660 1802q0 82 48 133.5t149 51.5q102 0 149 -51.5t47 -133.5t-47 -133t-149 -51 q-100 0 -148.5 51t-48.5 133z" />
<glyph unicode="&#xcc;" horiz-adv-x="692" d="M-80 1982h397l211 -376h-360zM156 0v1495h381v-1495h-381z" />
<glyph unicode="&#xcd;" horiz-adv-x="692" d="M152 1606l254 376h393l-291 -376h-356zM156 0v1495h381v-1495h-381z" />
<glyph unicode="&#xce;" horiz-adv-x="692" d="M-135 1606l266 376h439l270 -376h-340l-135 200h-37l-131 -200h-332zM156 0v1495h381v-1495h-381z" />
<glyph unicode="&#xcf;" horiz-adv-x="692" d="M-84 1802q0 82 48 133.5t149 51.5q102 0 149 -51.5t47 -133.5t-47 -133t-149 -51q-100 0 -148.5 51t-48.5 133zM156 0v1495h381v-1495h-381zM383 1802q0 82 48 133.5t149 51.5q102 0 149 -51.5t47 -133.5t-47 -133t-149 -51q-100 0 -148.5 51t-48.5 133z" />
<glyph unicode="&#xd0;" horiz-adv-x="1593" d="M23 592v311h807v-311h-807zM152 -8v1515h569q203 0 355.5 -57t255 -158.5t153.5 -234.5t51 -283v-45q0 -137 -51 -269t-153.5 -237.5t-255 -168t-355.5 -62.5h-569zM532 348h205q195 0 304.5 108.5t109.5 295.5q0 197 -109.5 298t-304.5 101h-205v-803z" />
<glyph unicode="&#xd1;" horiz-adv-x="1812" d="M152 0v1495h624l498 -1192h31v1192h356v-1495h-629l-497 1192h-31v-1192h-352zM492 1876q37 43 97.5 73.5t152.5 30.5q68 0 115 -17t84.5 -39.5t77.5 -40t94 -17.5q72 0 121 25.5t77 58.5l53 -254q-37 -43 -98 -74t-153 -31q-68 0 -115 17.5t-85 40t-78 40t-93 17.5 q-72 0 -120 -24.5t-77 -59.5z" />
<glyph unicode="&#xd2;" d="M78 729v45q0 141 51 277.5t153.5 247t253 176t349.5 65.5q197 0 347 -65.5t252.5 -176t155 -247t52.5 -277.5v-45q0 -127 -50.5 -262t-150.5 -251t-251.5 -186.5t-354.5 -70.5q-205 0 -356.5 70.5t-252 186.5t-149.5 251t-49 262zM459 1982h397l211 -376h-360zM463 750 q0 -123 51 -221.5t145.5 -156t225.5 -57.5t225 57.5t145.5 156t51.5 221.5q0 131 -51.5 228t-146.5 151.5t-224 54.5q-195 0 -308.5 -120t-113.5 -314z" />
<glyph unicode="&#xd3;" d="M78 729v45q0 141 51 277.5t153.5 247t253 176t349.5 65.5q197 0 347 -65.5t252.5 -176t155 -247t52.5 -277.5v-45q0 -127 -50.5 -262t-150.5 -251t-251.5 -186.5t-354.5 -70.5q-205 0 -356.5 70.5t-252 186.5t-149.5 251t-49 262zM463 750q0 -123 51 -221.5t145.5 -156 t225.5 -57.5t225 57.5t145.5 156t51.5 221.5q0 131 -51.5 228t-146.5 151.5t-224 54.5q-195 0 -308.5 -120t-113.5 -314zM690 1606l254 376h393l-291 -376h-356z" />
<glyph unicode="&#xd4;" d="M78 729v45q0 141 51 277.5t153.5 247t253 176t349.5 65.5q197 0 347 -65.5t252.5 -176t155 -247t52.5 -277.5v-45q0 -127 -50.5 -262t-150.5 -251t-251.5 -186.5t-354.5 -70.5q-205 0 -356.5 70.5t-252 186.5t-149.5 251t-49 262zM403 1606l266 376h439l270 -376h-340 l-135 200h-37l-131 -200h-332zM463 750q0 -123 51 -221.5t145.5 -156t225.5 -57.5t225 57.5t145.5 156t51.5 221.5q0 131 -51.5 228t-146.5 151.5t-224 54.5q-195 0 -308.5 -120t-113.5 -314z" />
<glyph unicode="&#xd5;" d="M78 729v45q0 141 51 277.5t153.5 247t253 176t349.5 65.5q197 0 347 -65.5t252.5 -176t155 -247t52.5 -277.5v-45q0 -127 -50.5 -262t-150.5 -251t-251.5 -186.5t-354.5 -70.5q-205 0 -356.5 70.5t-252 186.5t-149.5 251t-49 262zM449 1876q37 43 97.5 73.5t152.5 30.5 q68 0 115 -17t84.5 -39.5t77.5 -40t94 -17.5q72 0 121 25.5t77 58.5l53 -254q-37 -43 -98 -74t-153 -31q-68 0 -115 17.5t-85 40t-78 40t-93 17.5q-72 0 -120 -24.5t-77 -59.5zM463 750q0 -123 51 -221.5t145.5 -156t225.5 -57.5t225 57.5t145.5 156t51.5 221.5 q0 131 -51.5 228t-146.5 151.5t-224 54.5q-195 0 -308.5 -120t-113.5 -314z" />
<glyph unicode="&#xd6;" d="M78 729v45q0 141 51 277.5t153.5 247t253 176t349.5 65.5q197 0 347 -65.5t252.5 -176t155 -247t52.5 -277.5v-45q0 -127 -50.5 -262t-150.5 -251t-251.5 -186.5t-354.5 -70.5q-205 0 -356.5 70.5t-252 186.5t-149.5 251t-49 262zM455 1802q0 82 48 133.5t149 51.5 q102 0 149 -51.5t47 -133.5t-47 -133t-149 -51q-100 0 -148.5 51t-48.5 133zM463 750q0 -123 51 -221.5t145.5 -156t225.5 -57.5t225 57.5t145.5 156t51.5 221.5q0 131 -51.5 228t-146.5 151.5t-224 54.5q-195 0 -308.5 -120t-113.5 -314zM922 1802q0 82 48 133.5t149 51.5 q102 0 149 -51.5t47 -133.5t-47 -133t-149 -51q-100 0 -148.5 51t-48.5 133z" />
<glyph unicode="&#xd7;" horiz-adv-x="1224" d="M78 379l323 323l-323 322l215 215l323 -324l324 324l207 -207l-324 -323l324 -322l-215 -215l-324 324l-323 -324z" />
<glyph unicode="&#xd8;" d="M78 729v45q0 141 51 277.5t153.5 247t253 176t349.5 65.5q98 0 185 -17.5t163 -49.5l96 145h279l-178 -268q129 -111 195.5 -264.5t66.5 -311.5v-45q0 -127 -50.5 -262t-150.5 -251t-252 -186.5t-354 -70.5q-96 0 -180 16.5t-156 47.5l-111 -166h-278l190 286 q-137 119 -204.5 278t-67.5 308zM463 750q0 -174 96 -291l469 704q-68 20 -143 21q-195 0 -308.5 -119.5t-113.5 -314.5zM754 332q61 -17 131 -17q131 0 225 57.5t145.5 156t51.5 221.5q0 170 -88 282z" />
<glyph unicode="&#xd9;" horiz-adv-x="1579" d="M123 612v883h381v-891q0 -133 74.5 -211t212.5 -78q137 0 210.5 77t73.5 212v891h381v-883q0 -301 -170.5 -477t-494.5 -176q-215 0 -363.5 80t-226.5 226.5t-78 346.5zM365 1982h397l211 -376h-360z" />
<glyph unicode="&#xda;" horiz-adv-x="1579" d="M123 612v883h381v-891q0 -133 74.5 -211t212.5 -78q137 0 210.5 77t73.5 212v891h381v-883q0 -301 -170.5 -477t-494.5 -176q-215 0 -363.5 80t-226.5 226.5t-78 346.5zM596 1606l254 376h393l-291 -376h-356z" />
<glyph unicode="&#xdb;" horiz-adv-x="1579" d="M123 612v883h381v-891q0 -133 74.5 -211t212.5 -78q137 0 210.5 77t73.5 212v891h381v-883q0 -301 -170.5 -477t-494.5 -176q-215 0 -363.5 80t-226.5 226.5t-78 346.5zM309 1606l266 376h439l270 -376h-340l-135 200h-37l-131 -200h-332z" />
<glyph unicode="&#xdc;" horiz-adv-x="1579" d="M123 612v883h381v-891q0 -133 74.5 -211t212.5 -78q137 0 210.5 77t73.5 212v891h381v-883q0 -301 -170.5 -477t-494.5 -176q-215 0 -363.5 80t-226.5 226.5t-78 346.5zM360 1802q0 82 48 133.5t149 51.5q102 0 149 -51.5t47 -133.5t-47 -133t-149 -51q-100 0 -148.5 51 t-48.5 133zM827 1802q0 82 48 133.5t149 51.5q102 0 149 -51.5t47 -133.5t-47 -133t-149 -51q-100 0 -148.5 51t-48.5 133z" />
<glyph unicode="&#xdd;" horiz-adv-x="1347" d="M8 1495h389l277 -647h51l246 647h368l-387 -934h-73v-561h-373v561h-74zM489 1606l254 376h393l-291 -376h-356z" />
<glyph unicode="&#xde;" horiz-adv-x="1355" d="M152 0v1495h380v-188h179q190 0 327.5 -63.5t211 -182.5t73.5 -285v-33q0 -164 -73.5 -283.5t-211 -183t-327.5 -63.5h-179v-213h-380zM532 543h189q100 0 158.5 57t58.5 160q0 102 -58.5 160.5t-158.5 58.5h-189v-436z" />
<glyph unicode="&#xdf;" horiz-adv-x="1419" d="M33 803v270h125q16 221 163.5 340t387.5 119h8q162 0 280.5 -55.5t185 -153.5t66.5 -227q0 -92 -37.5 -167t-119.5 -118q133 -47 202.5 -146.5t69.5 -242.5q0 -158 -75 -257t-195.5 -146.5t-262.5 -47.5q-121 0 -200 27v299q37 -10 79 -18.5t81 -8.5q88 0 144 45t56 140 q0 80 -53 140t-180 60h-90v271h67q68 0 105 41t37 104q0 74 -46.5 118t-117.5 44q-74 0 -129.5 -50t-55.5 -153v-1030h-372v803h-123z" />
<glyph unicode="&#xe0;" horiz-adv-x="1228" d="M53 332q0 127 67.5 205.5t186.5 115.5t273 37h178q-2 78 -38 114t-116 36q-39 0 -114.5 -2t-159.5 -6.5t-154 -8.5v312q49 4 116.5 8t140.5 6t134 2q262 0 404.5 -114.5t142.5 -350.5v-686h-295v209q-37 -115 -127 -176.5t-231 -61.5q-180 0 -294 95.5t-114 265.5z M201 1688h389l180 -435h-336zM422 358q0 -61 41 -99t117 -38q72 0 122 42t56 155v80h-178q-76 0 -117 -38t-41 -102z" />
<glyph unicode="&#xe1;" horiz-adv-x="1228" d="M53 332q0 127 67.5 205.5t186.5 115.5t273 37h178q-2 78 -38 114t-116 36q-39 0 -114.5 -2t-159.5 -6.5t-154 -8.5v312q49 4 116.5 8t140.5 6t134 2q262 0 404.5 -114.5t142.5 -350.5v-686h-295v209q-37 -115 -127 -176.5t-231 -61.5q-180 0 -294 95.5t-114 265.5z M420 1253l184 435h381l-237 -435h-328zM422 358q0 -61 41 -99t117 -38q72 0 122 42t56 155v80h-178q-76 0 -117 -38t-41 -102z" />
<glyph unicode="&#xe2;" horiz-adv-x="1228" d="M53 332q0 127 67.5 205.5t186.5 115.5t273 37h178q-2 78 -38 114t-116 36q-39 0 -114.5 -2t-159.5 -6.5t-154 -8.5v312q49 4 116.5 8t140.5 6t134 2q262 0 404.5 -114.5t142.5 -350.5v-686h-295v209q-37 -115 -127 -176.5t-231 -61.5q-180 0 -294 95.5t-114 265.5z M168 1253l207 435h459l211 -435h-316l-115 263h-28l-111 -263h-307zM422 358q0 -61 41 -99t117 -38q72 0 122 42t56 155v80h-178q-76 0 -117 -38t-41 -102z" />
<glyph unicode="&#xe3;" horiz-adv-x="1228" d="M53 332q0 127 67.5 205.5t186.5 115.5t273 37h178q-2 78 -38 114t-116 36q-39 0 -114.5 -2t-159.5 -6.5t-154 -8.5v312q49 4 116.5 8t140.5 6t134 2q262 0 404.5 -114.5t142.5 -350.5v-686h-295v209q-37 -115 -127 -176.5t-231 -61.5q-180 0 -294 95.5t-114 265.5z M205 1554q37 37 91 65t136 28q66 0 108 -16.5t75.5 -37t69.5 -37t85 -16.5q59 0 102.5 21.5t73.5 50.5l54 -254q-37 -37 -92.5 -64.5t-137.5 -27.5q-63 0 -106 16t-77 36.5t-70 37t-85 16.5q-57 0 -100 -21.5t-74 -50.5zM422 358q0 -61 41 -99t117 -38q72 0 122 42t56 155 v80h-178q-76 0 -117 -38t-41 -102z" />
<glyph unicode="&#xe4;" horiz-adv-x="1228" d="M53 332q0 127 67.5 205.5t186.5 115.5t273 37h178q-2 78 -38 114t-116 36q-39 0 -114.5 -2t-159.5 -6.5t-154 -8.5v312q49 4 116.5 8t140.5 6t134 2q262 0 404.5 -114.5t142.5 -350.5v-686h-295v209q-37 -115 -127 -176.5t-231 -61.5q-180 0 -294 95.5t-114 265.5z M188 1470q0 80 44 134.5t144 54.5t144.5 -54.5t44.5 -134.5t-44.5 -134t-144.5 -54t-144 54.5t-44 133.5zM422 358q0 -61 41 -99t117 -38q72 0 122 42t56 155v80h-178q-76 0 -117 -38t-41 -102zM639 1470q0 80 44 134.5t144 54.5t144.5 -54.5t44.5 -134.5t-44.5 -134 t-144.5 -54t-144 54.5t-44 133.5z" />
<glyph unicode="&#xe5;" horiz-adv-x="1228" d="M53 332q0 127 67.5 205.5t186.5 115.5t273 37h178q-2 78 -38 114t-116 36q-39 0 -114.5 -2t-159.5 -6.5t-154 -8.5v312q49 4 116.5 8t140.5 6t134 2q262 0 404.5 -114.5t142.5 -350.5v-686h-295v209q-37 -115 -127 -176.5t-231 -61.5q-180 0 -294 95.5t-114 265.5z M330 1487q0 113 76 184.5t196 71.5q121 0 197 -72t76 -184q0 -113 -76 -184.5t-197 -71.5t-196.5 71.5t-75.5 184.5zM422 358q0 -61 41 -99t117 -38q72 0 122 42t56 155v80h-178q-76 0 -117 -38t-41 -102zM520 1487q0 -35 21.5 -58.5t60.5 -23.5t60.5 23.5t21.5 58.5 t-21.5 58.5t-60.5 23.5t-60.5 -23.5t-21.5 -58.5z" />
<glyph unicode="&#xe6;" horiz-adv-x="1961" d="M53 330q0 127 67.5 205.5t186.5 115.5t273 37h178q-2 78 -38 114t-116 36q-39 0 -114.5 -2t-159.5 -6.5t-154 -8.5v312q49 4 116.5 8t138.5 6t132 2q141 0 239.5 -37t158.5 -108q61 74 154 118.5t222 44.5q180 0 305 -83t192 -217t67 -289v-113h-803q16 -98 75.5 -152.5 t167.5 -54.5q156 0 199 98h340q-25 -115 -97.5 -205t-184 -141t-252.5 -51q-166 0 -278 66.5t-175 167.5q-53 -109 -165 -166.5t-253 -57.5q-186 0 -304 95.5t-118 265.5zM422 356q0 -61 41 -99t117 -38q72 0 125 45t53 162v70h-178q-76 0 -117 -38t-41 -102zM1098 657h452 q-31 211 -221 211q-92 0 -152.5 -53t-78.5 -158z" />
<glyph unicode="&#xe7;" horiz-adv-x="1255" d="M70 541v41q0 158 66.5 292t196.5 215.5t318 81.5q156 0 274.5 -61t189.5 -168.5t79 -247.5h-365q-6 68 -50 115t-128 47q-106 0 -157.5 -81t-51.5 -214q0 -127 46.5 -207t162.5 -80q86 0 132 45.5t55 122.5h364q-8 -143 -80.5 -251.5t-193.5 -170t-277 -61.5 q-147 0 -255.5 48t-181.5 130t-108.5 186.5t-35.5 217.5zM471 -322q29 -10 69.5 -18t85.5 -8q111 0 111 51q0 18 -17.5 28.5t-60.5 10.5h-117v287h226v-123q100 -16 155.5 -69.5t55.5 -143.5q0 -113 -85 -189.5t-249 -76.5q-51 0 -99.5 9t-74.5 17v225z" />
<glyph unicode="&#xe8;" horiz-adv-x="1286" d="M70 545v41q0 115 40 220t114.5 187t183 130t245.5 48q182 0 309.5 -81.5t195 -216t67.5 -291.5v-119h-803q18 -96 77.5 -150.5t166.5 -54.5q156 0 198 98h340q-25 -115 -97.5 -205t-184 -141t-256.5 -51q-143 0 -254 49t-186.5 133t-115.5 188.5t-40 215.5zM252 1688h389 l180 -435h-336zM422 664h452q-35 208 -221 208q-92 0 -152.5 -52t-78.5 -156z" />
<glyph unicode="&#xe9;" horiz-adv-x="1286" d="M70 545v41q0 115 40 220t114.5 187t183 130t245.5 48q182 0 309.5 -81.5t195 -216t67.5 -291.5v-119h-803q18 -96 77.5 -150.5t166.5 -54.5q156 0 198 98h340q-25 -115 -97.5 -205t-184 -141t-256.5 -51q-143 0 -254 49t-186.5 133t-115.5 188.5t-40 215.5zM422 664h452 q-35 208 -221 208q-92 0 -152.5 -52t-78.5 -156zM471 1253l184 435h381l-237 -435h-328z" />
<glyph unicode="&#xea;" horiz-adv-x="1286" d="M70 545v41q0 115 40 220t114.5 187t183 130t245.5 48q182 0 309.5 -81.5t195 -216t67.5 -291.5v-119h-803q18 -96 77.5 -150.5t166.5 -54.5q156 0 198 98h340q-25 -115 -97.5 -205t-184 -141t-256.5 -51q-143 0 -254 49t-186.5 133t-115.5 188.5t-40 215.5zM219 1253 l207 435h459l211 -435h-316l-115 263h-28l-111 -263h-307zM422 664h452q-35 208 -221 208q-92 0 -152.5 -52t-78.5 -156z" />
<glyph unicode="&#xeb;" horiz-adv-x="1286" d="M70 545v41q0 115 40 220t114.5 187t183 130t245.5 48q182 0 309.5 -81.5t195 -216t67.5 -291.5v-119h-803q18 -96 77.5 -150.5t166.5 -54.5q156 0 198 98h340q-25 -115 -97.5 -205t-184 -141t-256.5 -51q-143 0 -254 49t-186.5 133t-115.5 188.5t-40 215.5zM240 1470 q0 80 44 134.5t144 54.5t144.5 -54.5t44.5 -134.5t-44.5 -134t-144.5 -54t-144 54.5t-44 133.5zM422 664h452q-35 208 -221 208q-92 0 -152.5 -52t-78.5 -156zM691 1470q0 80 44 134.5t144 54.5t144.5 -54.5t44.5 -134.5t-44.5 -134t-144.5 -54t-144 54.5t-44 133.5z" />
<glyph unicode="&#xec;" horiz-adv-x="700" d="M-76 1688h389l180 -435h-336zM45 860v270h516v-1130h-373v860h-143z" />
<glyph unicode="&#xed;" horiz-adv-x="700" d="M45 860v270h516v-1130h-373v860h-143zM143 1253l184 435h381l-237 -435h-328z" />
<glyph unicode="&#xee;" horiz-adv-x="700" d="M-109 1253l207 435h459l211 -435h-316l-115 263h-28l-111 -263h-307zM45 860v270h516v-1130h-373v860h-143z" />
<glyph unicode="&#xef;" horiz-adv-x="700" d="M-88 1470q0 80 44 134.5t144 54.5t144.5 -54.5t44.5 -134.5t-44.5 -134t-144.5 -54t-144 54.5t-44 133.5zM45 860v270h516v-1130h-373v860h-143zM363 1470q0 80 44 134.5t144 54.5t144.5 -54.5t44.5 -134.5t-44.5 -134t-144.5 -54t-144 54.5t-44 133.5z" />
<glyph unicode="&#xf0;" horiz-adv-x="1396" d="M70 500v32q0 160 72.5 273t194.5 172t267 59q137 0 253 -54t167 -157q-10 121 -40 202t-66 128l-123 -123l-129 131l86 86q-61 12 -138 13q-68 0 -138 -7.5t-138 -17.5v279q70 12 140.5 18t133.5 6q211 0 361 -70l162 162l129 -131l-140 -139q102 -102 150.5 -261 t48.5 -368v-53q0 -342 -163 -529.5t-460 -187.5q-193 0 -335 70.5t-218.5 192.5t-76.5 274zM442 516q0 -117 70.5 -179.5t189.5 -62.5q121 0 191 62.5t70 179.5q0 121 -73 185.5t-188 64.5t-187.5 -64.5t-72.5 -185.5z" />
<glyph unicode="&#xf1;" horiz-adv-x="1343" d="M135 0v1130h295v-296q33 168 129 250.5t250 82.5h16q193 0 298.5 -128t105.5 -392v-647h-373v657q0 78 -46 128.5t-126 50.5t-128 -50.5t-48 -132.5v-653h-373zM289 1554q37 37 91 65t136 28q66 0 108 -16.5t75.5 -37t69.5 -37t85 -16.5q59 0 102.5 21.5t73.5 50.5 l54 -254q-37 -37 -92.5 -64.5t-137.5 -27.5q-63 0 -106 16t-77 36.5t-70 37t-85 16.5q-57 0 -100 -21.5t-74 -50.5z" />
<glyph unicode="&#xf2;" horiz-adv-x="1396" d="M70 537v49q0 166 76.5 298t218 209.5t333.5 77.5q193 0 334.5 -77.5t218 -209.5t76.5 -298v-49q0 -158 -73.5 -289t-214 -210t-341.5 -79q-199 0 -340 79t-214.5 210t-73.5 289zM297 1688h389l180 -435h-336zM442 561q0 -127 64.5 -209t191.5 -82t191.5 82t64.5 209 q0 131 -66.5 215t-189.5 84t-189.5 -84t-66.5 -215z" />
<glyph unicode="&#xf3;" horiz-adv-x="1396" d="M70 537v49q0 166 76.5 298t218 209.5t333.5 77.5q193 0 334.5 -77.5t218 -209.5t76.5 -298v-49q0 -158 -73.5 -289t-214 -210t-341.5 -79q-199 0 -340 79t-214.5 210t-73.5 289zM442 561q0 -127 64.5 -209t191.5 -82t191.5 82t64.5 209q0 131 -66.5 215t-189.5 84 t-189.5 -84t-66.5 -215zM516 1253l184 435h381l-237 -435h-328z" />
<glyph unicode="&#xf4;" horiz-adv-x="1396" d="M70 537v49q0 166 76.5 298t218 209.5t333.5 77.5q193 0 334.5 -77.5t218 -209.5t76.5 -298v-49q0 -158 -73.5 -289t-214 -210t-341.5 -79q-199 0 -340 79t-214.5 210t-73.5 289zM264 1253l207 435h459l211 -435h-316l-115 263h-28l-111 -263h-307zM442 561 q0 -127 64.5 -209t191.5 -82t191.5 82t64.5 209q0 131 -66.5 215t-189.5 84t-189.5 -84t-66.5 -215z" />
<glyph unicode="&#xf5;" horiz-adv-x="1396" d="M70 537v49q0 166 76.5 298t218 209.5t333.5 77.5q193 0 334.5 -77.5t218 -209.5t76.5 -298v-49q0 -158 -73.5 -289t-214 -210t-341.5 -79q-199 0 -340 79t-214.5 210t-73.5 289zM301 1554q37 37 91 65t136 28q66 0 108 -16.5t75.5 -37t69.5 -37t85 -16.5q59 0 102.5 21.5 t73.5 50.5l54 -254q-37 -37 -92.5 -64.5t-137.5 -27.5q-63 0 -106 16t-77 36.5t-70 37t-85 16.5q-57 0 -100 -21.5t-74 -50.5zM442 561q0 -127 64.5 -209t191.5 -82t191.5 82t64.5 209q0 131 -66.5 215t-189.5 84t-189.5 -84t-66.5 -215z" />
<glyph unicode="&#xf6;" horiz-adv-x="1396" d="M70 537v49q0 166 76.5 298t218 209.5t333.5 77.5q193 0 334.5 -77.5t218 -209.5t76.5 -298v-49q0 -158 -73.5 -289t-214 -210t-341.5 -79q-199 0 -340 79t-214.5 210t-73.5 289zM285 1470q0 80 44 134.5t144 54.5t144.5 -54.5t44.5 -134.5t-44.5 -134t-144.5 -54 t-144 54.5t-44 133.5zM442 561q0 -127 64.5 -209t191.5 -82t191.5 82t64.5 209q0 131 -66.5 215t-189.5 84t-189.5 -84t-66.5 -215zM736 1470q0 80 44 134.5t144 54.5t144.5 -54.5t44.5 -134.5t-44.5 -134t-144.5 -54t-144 54.5t-44 133.5z" />
<glyph unicode="&#xf7;" horiz-adv-x="1224" d="M90 553v303h1045v-303h-1045zM444 102v324h336v-324h-336zM444 983v324h336v-324h-336z" />
<glyph unicode="&#xf8;" horiz-adv-x="1396" d="M70 537v49q0 166 76.5 298t218 209.5t333.5 77.5q150 0 275 -51l71 109h213l-131 -199q96 -80 148.5 -194.5t52.5 -249.5v-49q0 -158 -73.5 -289t-214 -210t-341.5 -79q-139 0 -256 41l-90 -135h-213l146 221q-104 80 -159.5 197.5t-55.5 253.5zM442 561q0 -104 41 -176 l308 461q-43 14 -93 14q-123 0 -189.5 -84t-66.5 -215zM627 279q32 -9 71 -9q127 0 191.5 82t64.5 209q0 92 -32 162z" />
<glyph unicode="&#xf9;" horiz-adv-x="1331" d="M111 475v655h372v-665q0 -76 45 -123t121 -47t123 47t47 127v661h373v-1130h-295v266q-35 -156 -127 -229.5t-240 -73.5h-16q-193 0 -298 126t-105 386zM250 1688h389l180 -435h-336z" />
<glyph unicode="&#xfa;" horiz-adv-x="1331" d="M111 475v655h372v-665q0 -76 45 -123t121 -47t123 47t47 127v661h373v-1130h-295v266q-35 -156 -127 -229.5t-240 -73.5h-16q-193 0 -298 126t-105 386zM469 1253l184 435h381l-237 -435h-328z" />
<glyph unicode="&#xfb;" horiz-adv-x="1331" d="M111 475v655h372v-665q0 -76 45 -123t121 -47t123 47t47 127v661h373v-1130h-295v266q-35 -156 -127 -229.5t-240 -73.5h-16q-193 0 -298 126t-105 386zM217 1253l207 435h459l211 -435h-316l-115 263h-28l-111 -263h-307z" />
<glyph unicode="&#xfc;" horiz-adv-x="1331" d="M111 475v655h372v-665q0 -76 45 -123t121 -47t123 47t47 127v661h373v-1130h-295v266q-35 -156 -127 -229.5t-240 -73.5h-16q-193 0 -298 126t-105 386zM238 1470q0 80 44 134.5t144 54.5t144.5 -54.5t44.5 -134.5t-44.5 -134t-144.5 -54t-144 54.5t-44 133.5zM689 1470 q0 80 44 134.5t144 54.5t144.5 -54.5t44.5 -134.5t-44.5 -134t-144.5 -54t-144 54.5t-44 133.5z" />
<glyph unicode="&#xfd;" horiz-adv-x="1181" d="M0 1130h373l229 -819h37l182 819h353l-297 -1212q-33 -139 -91.5 -220t-160 -115t-263.5 -34h-219v312h260q72 0 110 27.5t54 101.5l8 35h-245zM416 1253l184 435h381l-237 -435h-328z" />
<glyph unicode="&#xfe;" horiz-adv-x="1449" d="M135 -410v1905h373v-577q51 111 149.5 174t241.5 63q152 0 259.5 -70.5t164.5 -198.5t57 -298v-49q0 -166 -58 -296t-172 -205t-280 -75q-117 0 -210 40t-152 124v-537h-373zM500 518q0 -80 39 -135t98.5 -84t120.5 -29q111 0 180.5 81t69.5 212t-69 208t-181 77 q-68 0 -126.5 -30t-95 -88t-36.5 -142v-70z" />
<glyph unicode="&#xff;" horiz-adv-x="1181" d="M0 1130h373l229 -819h37l182 819h353l-297 -1212q-33 -139 -91.5 -220t-160 -115t-263.5 -34h-219v312h260q72 0 110 27.5t54 101.5l8 35h-245zM184 1470q0 80 44 134.5t144 54.5t144.5 -54.5t44.5 -134.5t-44.5 -134t-144.5 -54t-144 54.5t-44 133.5zM635 1470 q0 80 44 134.5t144 54.5t144.5 -54.5t44.5 -134.5t-44.5 -134t-144.5 -54t-144 54.5t-44 133.5z" />
<glyph unicode="&#x152;" horiz-adv-x="2131" d="M78 727v45q0 141 50 277.5t151.5 247t253 177t352.5 66.5q78 0 148.5 -12t127.5 -33h856v-311h-577v-269h549v-311h-549v-293h590v-311h-869q-53 -20 -120.5 -32.5t-155.5 -12.5q-207 0 -359.5 71.5t-252 187.5t-147.5 251t-48 262zM463 748q0 -123 51 -222.5t146.5 -157 t224.5 -57.5q51 0 100 10.5t86 26.5v801q-39 16 -86 25.5t-100 9.5q-129 0 -224.5 -55.5t-146.5 -152.5t-51 -228z" />
<glyph unicode="&#x153;" horiz-adv-x="2170" d="M70 539v49q0 164 73.5 296t212 209.5t330.5 77.5q156 0 268.5 -52t182.5 -142q66 88 168 141t245 53q182 0 306 -82.5t188.5 -217t64.5 -289.5v-115h-802q18 -98 76.5 -153.5t166.5 -55.5q156 0 199 98h340q-37 -174 -173 -285.5t-353 -111.5q-150 0 -255.5 55.5 t-168.5 145.5q-70 -90 -180.5 -143.5t-272.5 -53.5q-199 0 -337 79t-208.5 210t-70.5 287zM442 563q0 -125 64.5 -207t191.5 -82t191.5 82t64.5 207q0 127 -66.5 212t-189.5 85t-189.5 -85t-66.5 -212zM1307 659h452q-31 213 -221 213q-92 0 -152.5 -53t-78.5 -160z" />
<glyph unicode="&#x178;" horiz-adv-x="1347" d="M8 1495h389l277 -647h51l246 647h368l-387 -934h-73v-561h-373v561h-74zM254 1802q0 82 48 133.5t149 51.5q102 0 149 -51.5t47 -133.5t-47 -133t-149 -51q-100 0 -148.5 51t-48.5 133zM721 1802q0 82 48 133.5t149 51.5q102 0 149 -51.5t47 -133.5t-47 -133t-149 -51 q-100 0 -148.5 51t-48.5 133z" />
<glyph unicode="&#x2c6;" horiz-adv-x="614" d="M0 1253l207 435h459l211 -435h-316l-115 263h-28l-111 -263h-307z" />
<glyph unicode="&#x2dc;" horiz-adv-x="614" d="M0 1554q37 37 91 65t136 28q66 0 108 -16.5t75.5 -37t69.5 -37t85 -16.5q59 0 102.5 21.5t73.5 50.5l54 -254q-37 -37 -92.5 -64.5t-137.5 -27.5q-63 0 -106 16t-77 36.5t-70 37t-85 16.5q-57 0 -100 -21.5t-74 -50.5z" />
<glyph unicode="&#x2000;" horiz-adv-x="1011" />
<glyph unicode="&#x2001;" horiz-adv-x="2023" />
<glyph unicode="&#x2002;" horiz-adv-x="1011" />
<glyph unicode="&#x2003;" horiz-adv-x="2023" />
<glyph unicode="&#x2004;" horiz-adv-x="674" />
<glyph unicode="&#x2005;" horiz-adv-x="505" />
<glyph unicode="&#x2006;" horiz-adv-x="337" />
<glyph unicode="&#x2007;" horiz-adv-x="337" />
<glyph unicode="&#x2008;" horiz-adv-x="252" />
<glyph unicode="&#x2009;" horiz-adv-x="404" />
<glyph unicode="&#x200a;" horiz-adv-x="112" />
<glyph unicode="&#x2010;" horiz-adv-x="1044" d="M74 416v332h897v-332h-897z" />
<glyph unicode="&#x2011;" horiz-adv-x="1044" d="M74 416v332h897v-332h-897z" />
<glyph unicode="&#x2012;" horiz-adv-x="1044" d="M74 416v332h897v-332h-897z" />
<glyph unicode="&#x2013;" horiz-adv-x="1085" d="M37 442v279h1012v-279h-1012z" />
<glyph unicode="&#x2014;" horiz-adv-x="1880" d="M37 442v279h1806v-279h-1806z" />
<glyph unicode="&#x2018;" horiz-adv-x="569" d="M61 1084v26q0 213 96.5 311.5t282.5 98.5h55v-213h-78q-76 0 -110.5 -32t-36.5 -134q18 4 39 4q78 0 130 -47t52 -133q0 -80 -50 -137.5t-148 -57.5q-63 0 -115.5 30t-84.5 98.5t-32 185.5z" />
<glyph unicode="&#x2019;" horiz-adv-x="569" d="M74 770v213h78q76 0 110.5 32t36.5 134q-18 -4 -39 -4q-78 0 -130 47t-52 133q0 80 50 137.5t148 57.5q63 0 115.5 -30t84.5 -98.5t32 -185.5v-26q0 -213 -96.5 -311.5t-282.5 -98.5h-55z" />
<glyph unicode="&#x201a;" horiz-adv-x="569" d="M74 -205h78q76 0 110.5 32t36.5 134q-18 -4 -39 -4q-78 0 -130 47t-52 133q0 80 50 137.5t148 57.5q63 0 115.5 -30t84.5 -98.5t32 -185.5v-26q0 -213 -96.5 -311.5t-282.5 -98.5h-55v213z" />
<glyph unicode="&#x201c;" horiz-adv-x="1077" d="M61 1084v26q0 213 96.5 311.5t282.5 98.5h55v-213h-78q-76 0 -110.5 -32t-36.5 -134q18 4 39 4q78 0 130 -47t52 -133q0 -80 -50 -137.5t-148 -57.5q-63 0 -115.5 30t-84.5 98.5t-32 185.5zM569 1084v26q0 213 96.5 311.5t282.5 98.5h55v-213h-78q-76 0 -110.5 -32 t-36.5 -134q18 4 39 4q78 0 130 -47t52 -133q0 -80 -50 -137.5t-148 -57.5q-63 0 -115.5 30t-84.5 98.5t-32 185.5z" />
<glyph unicode="&#x201d;" horiz-adv-x="1077" d="M74 770v213h78q76 0 110.5 32t36.5 134q-18 -4 -39 -4q-78 0 -130 47t-52 133q0 80 50 137.5t148 57.5q63 0 115.5 -30t84.5 -98.5t32 -185.5v-26q0 -213 -96.5 -311.5t-282.5 -98.5h-55zM582 770v213h78q76 0 110.5 32t36.5 134q-18 -4 -39 -4q-78 0 -130 47t-52 133 q0 80 50 137.5t148 57.5q63 0 115.5 -30t84.5 -98.5t32 -185.5v-26q0 -213 -96.5 -311.5t-282.5 -98.5h-55z" />
<glyph unicode="&#x201e;" horiz-adv-x="1077" d="M74 -205h78q76 0 110.5 32t36.5 134q-18 -4 -39 -4q-78 0 -130 47t-52 133q0 80 50 137.5t148 57.5q63 0 115.5 -30t84.5 -98.5t32 -185.5v-26q0 -213 -96.5 -311.5t-282.5 -98.5h-55v213zM582 -205h78q76 0 110.5 32t36.5 134q-18 -4 -39 -4q-78 0 -130 47t-52 133 q0 80 50 137.5t148 57.5q63 0 115.5 -30t84.5 -98.5t32 -185.5v-26q0 -213 -96.5 -311.5t-282.5 -98.5h-55v213z" />
<glyph unicode="&#x2022;" horiz-adv-x="892" d="M160 295v594h573v-594h-573z" />
<glyph unicode="&#x2026;" horiz-adv-x="1785" d="M98 0v406h401v-406h-401zM692 0v406h401v-406h-401zM1286 0v406h401v-406h-401z" />
<glyph unicode="&#x202f;" horiz-adv-x="404" />
<glyph unicode="&#x2039;" horiz-adv-x="770" d="M25 479v103l282 407h426l-295 -416v-77l295 -416h-438z" />
<glyph unicode="&#x203a;" horiz-adv-x="770" d="M37 80l295 416v77l-295 416h438l270 -399v-103l-282 -407h-426z" />
<glyph unicode="&#x205f;" horiz-adv-x="505" />
<glyph unicode="&#x20ac;" horiz-adv-x="1466" d="M20 489v177h148q-2 33 -2 67v29v39h-109v176h123q43 276 201 415.5t424 139.5q197 0 327 -66.5t196.5 -184.5t72.5 -271h-328q-8 102 -72.5 162.5t-195.5 60.5q-123 0 -192.5 -59.5t-96.5 -196.5h424v-176h-442v-53q0 -43 2 -82h403v-177h-379q31 -121 102.5 -174 t188.5 -53q133 0 197.5 60.5t72.5 162.5h328q-6 -152 -72.5 -270.5t-196.5 -185t-329 -66.5q-260 0 -419.5 132t-209.5 394h-166z" />
<glyph unicode="&#x2122;" horiz-adv-x="1888" d="M20 1286v209h697v-209h-225v-618h-246v618h-226zM811 668v827h317l177 -487h8l176 487h317v-827h-233v546l-152 -415h-233l-156 428v-559h-221z" />
<glyph unicode="&#x25fc;" horiz-adv-x="1126" d="M0 0v1126h1126v-1126h-1126z" />
<glyph unicode="&#xfb03;" horiz-adv-x="2181" d="M33 848v270h123v29q0 393 454 393h101v-274h-109q-102 0 -102 -103v-45h403v17q0 393 455 393h137v-275h-145q-102 0 -103 -102v-33h217v-270h-217v-848h-344v848h-403v-848h-344v848h-123zM1546 860v270h496v-1130h-373v860h-123zM1624 1407q0 82 48 134t149 52 q102 0 149 -52t47 -134t-47 -134t-149 -52q-100 0 -148.5 52t-48.5 134z" />
<glyph unicode="&#xfb04;" horiz-adv-x="2166" d="M33 836v270h123v33q0 393 454 393h101v-275h-109q-102 0 -102 -102v-49h403q2 389 455 389h100v-270h-108q-102 0 -103 -103v-16h219v-270h-219v-836h-344v836h-403v-836h-344v836h-123zM1540 1225v270h488v-1495h-373v1225h-115z" />
</font>
</defs>
</svg>
